<?xml version="1.0" encoding="UTF-8" standalone="no"?>
<!-- Created with Inkscape (http://www.inkscape.org/) -->

<svg
   version="1.1"
   id="svg1"
   width="808.72736"
   height="808.36359"
   viewBox="0 0 808.72736 808.36359"
   xmlns="http://www.w3.org/2000/svg"
   xmlns:svg="http://www.w3.org/2000/svg">
  <defs
     id="defs1" />
  <g
     id="g1">
    <path
       id="path85"
       style="fill:#ffffff;fill-opacity:1;stroke-width:1.75129"
       d="m 411.08564,141.17046 c -2.32611,2.22494 -4.84247,4.25462 -7.03717,6.61433 -3.05201,3.22244 -4.3137,7.69354 -4.73601,12.01265 -0.43192,5.17631 0.0239,10.37808 0.54019,15.53138 0.37368,3.15704 0.81191,6.33253 1.6957,9.38953 0.83983,2.38681 3.12641,4.4061 5.758,4.27242 1.73199,0.0924 3.43521,-0.65656 4.55042,-1.98029 1.70389,-1.81257 2.03939,-4.37073 2.807,-6.63885 -0.009,2.475 1.15049,5.06706 3.42244,6.23853 2.56474,1.48028 6.05271,0.84459 7.99384,-1.37376 2.11598,-2.21056 2.99299,-5.28943 3.45497,-8.23938 0.36662,-3.31179 -0.32415,-6.61187 -0.48465,-9.9149 -0.34453,-4.10791 -0.68895,-8.21583 -1.03309,-12.32377 -3.54079,5.25875 -7.13917,10.47945 -10.65179,15.75597 -0.24422,0.36691 0.16828,-0.87898 0.17236,-1.14812 0.88079,-4.37675 1.58279,-8.8541 1.29193,-13.33051 -0.21022,-2.92569 -1.0255,-5.77884 -2.25579,-8.43413 -1.11768,-2.79742 -2.23476,-5.59507 -3.35358,-8.39204 -0.71159,0.65365 -1.42318,1.30729 -2.13477,1.96094 z m -131.31054,6.74805 c -0.023,4.44484 -0.18513,8.88941 -0.13672,13.33398 0.15481,2.30814 0.64269,4.58349 1.32226,6.79102 -2.87316,-3.02421 -5.71482,-6.12848 -9.05273,-8.65039 -1.64465,-1.05462 -3.66477,-1.13513 -5.55273,-1.08008 -0.92941,0.087 -1.63259,0.81071 -1.96469,1.62579 -0.73065,0.71798 -1.59333,1.4407 -1.7443,2.51093 -0.77202,2.94603 0.49574,5.86126 1.579,8.54714 2.92095,7.29219 6.86293,14.19399 11.88096,20.25015 6.20262,7.69757 13.29318,14.61821 20.48589,21.37852 1.70966,1.57678 3.8397,3.22464 6.31001,2.91989 1.21042,-0.20807 2.29493,-0.86937 3.32422,-1.50195 1.78529,-1.42164 2.2867,-3.99624 1.80469,-6.13867 -0.61103,-2.45773 -2.19024,-4.5034 -3.3871,-6.69238 -2.30737,-3.89979 -4.83645,-7.75644 -7.25939,-11.52442 1.93908,-0.40508 3.72084,-1.725 4.375,-3.63672 0.96025,-2.38319 0.2016,-4.98762 -0.2754,-7.39199 -1.51963,-6.80959 -4.29859,-13.31052 -7.87306,-19.28764 -2.30753,-3.47232 -5.22755,-6.47258 -7.81596,-9.72865 -1.98243,-2.37638 -3.96506,-4.75261 -5.94769,-7.12883 -0.0241,1.80143 -0.0482,3.60286 -0.0723,5.4043 z m 56.39453,25.39062 c 0.75776,0.81056 1.67545,1.57116 2.33594,2.41211 -0.43039,1.76905 -0.0905,3.62737 0.72332,5.23436 1.78499,4.31036 3.83166,8.50525 5.84308,12.71291 -2.43555,1.38768 -3.33188,4.49631 -2.95486,7.13975 0.0506,0.82313 0.5027,1.56882 0.64041,2.34658 -0.0998,2.24044 0.48622,4.69133 2.32031,6.14257 2.13729,1.87643 5.59419,1.84371 7.7461,0.0176 0.35091,0.69466 0.70182,1.38932 1.05273,2.08399 -2.63677,-0.96556 -5.82787,0.19685 -7.2168,2.64257 -1.00189,1.5941 -1.1768,3.54667 -0.85156,5.36719 0.505,4.05958 1.59286,8.016 2.64648,11.95899 -0.85832,-0.36562 -1.70368,-0.7608 -2.55664,-1.13868 -1.14154,1.17537 -2.6007,1.98233 -3.71156,3.18335 -0.36534,0.45295 -0.6416,-0.7363 -0.96157,-0.95686 -1.42041,-2.00923 -2.49998,-4.41201 -4.70584,-5.70758 -2.31081,-1.55961 -5.68059,-1.4692 -7.71944,0.51293 -1.93411,1.71222 -2.60969,4.61626 -1.67165,7.01775 0.81971,2.331 2.13193,4.44769 3.2017,6.66721 0.43137,0.79863 0.84743,1.6056 1.29297,2.39649 -3.05195,-0.2802 -6.15033,-0.73056 -9.04093,-1.26457 -6.07234,-1.06743 -12.1081,-2.68825 -18.30868,-2.73739 -4.03022,0.11969 -8.0116,0.99031 -11.84765,2.18946 -2.83118,1.061 -5.38734,3.21846 -6.36719,6.14453 -2.53116,-0.89952 -5.4762,0.23565 -6.9303,2.4476 -1.20102,1.80533 -1.65392,4.00749 -1.8615,6.1333 -0.1337,2.82704 1.15602,5.50929 2.91894,7.64789 0.64528,0.88338 1.32988,1.73738 2.0252,2.58174 -2.64127,0 -5.28255,0 -7.92382,0 -3.96737,-2.96264 -7.75894,-6.26787 -12.23633,-8.45506 -2.5661,-1.0089 -6.00956,-0.38153 -7.45313,2.14257 -0.41093,0.82973 -1.10892,1.55798 -1.08593,2.53321 -0.0985,1.21803 0.10921,2.45447 0.58203,3.58006 -7.12279,0.0619 -14.25749,0.21437 -21.37116,-0.18921 -1.674,-0.45549 -3.4136,-0.67344 -5.14235,-0.44062 -2.14514,0.22907 -4.27354,0.67843 -6.44209,0.59825 -11.12469,0.30259 -22.2547,0.0758 -33.38114,0.009 -13.02298,-0.10305 -26.05064,-0.3127 -39.07169,-0.0489 -1.20406,0.0754 -2.40667,0.36192 -3.53493,0.72811 -1.72737,-0.84213 -3.68684,-0.33622 -5.52422,-0.45898 -16.8181,0 -33.6362,0 -50.454299,0 0,32.31771 0,64.63542 0,96.95312 -4.31026,-1.10906 -8.75804,-1.66318 -13.20955,-1.60658 -6.58085,-0.1553 -13.25287,0.39532 -19.53178,2.47662 -14.5798,4.47309 -27.428671,14.49594 -35.070921,27.7229 -4.456619,7.60512 -7.409079,16.17002 -8.019289,24.99292 -0.47513,6.13224 -0.25566,12.34207 0.86609,18.39475 1.65198,8.01761 5.09321,15.62456 9.710219,22.36445 7.996301,11.54996 20.000381,20.32216 33.542141,24.14807 6.07235,1.77017 12.43969,2.41122 18.74959,2.10673 6.98021,-0.19038 14.02135,-1.22149 20.50168,-3.92089 7.724179,-3.08043 14.724759,-7.83009 20.729399,-13.55787 5.60397,5.39641 12.08207,9.94647 19.28639,12.93615 9.90551,4.17428 20.92031,5.54072 31.56777,4.17206 6.2064,-0.78607 12.3554,-2.34569 18.05515,-4.95003 0.49885,-0.14858 1.02387,-0.65097 1.4849,-0.62987 2.90642,2.6679 5.86545,5.28022 8.70345,8.02247 -3.24872,0.67081 -6.20095,2.5736 -8.13698,5.2692 -4.17218,5.75991 -7.74193,12.18769 -9.01556,19.25892 -0.21159,1.15279 -0.3685,2.31876 -0.34356,3.49336 -3.01036,4.16838 -5.87691,8.74373 -6.5145,13.95128 -0.40327,3.91468 1.52218,8.12726 5.11826,9.92276 3.70322,2.02336 8.0807,1.77768 12.1489,1.47765 2.64707,-0.22389 5.4941,-0.49405 7.70295,-2.11007 1.4349,-1.04607 2.43526,-2.60228 3.48775,-3.95451 3.4705,0.90273 7.21329,1.52915 10.08789,3.83399 0.70944,0.665 1.03217,1.65795 0.99219,2.61523 -5.6434,4.42695 -11.44643,8.6573 -16.90006,13.31947 -1.94042,1.75536 -3.25034,4.42893 -2.68783,7.07702 0.289,1.52571 1.28938,2.7921 2.36719,3.85156 0.31854,1.53177 0.12371,3.29638 0.0977,4.73047 -0.21061,4.07738 -1.03305,8.37701 -0.0645,12.48047 0.35434,1.67141 1.22004,3.22603 2.48242,4.38086 -4.1327,4.84542 -8.07898,10.01486 -10.4461,15.97881 -1.60489,4.18427 -1.94716,9.12376 0.24884,13.16572 1.75347,3.25205 4.96922,5.4986 8.45089,6.57656 4.10449,1.43956 8.44787,1.58353 12.63309,2.6168 1.1716,3.15883 5.18262,4.72494 8.22927,3.35499 2.19203,-0.82772 3.96805,-2.58614 5.68275,-3.94481 6.01121,-5.05782 11.705,-10.48125 17.70712,-15.54885 4.59325,1.55367 9.53402,0.69979 14.1519,-0.27745 4.35367,-0.98646 8.65278,-2.27654 12.77502,-3.99156 4.49942,-2.16789 7.90916,-5.92315 11.56562,-9.21796 3.01695,-2.83138 5.97488,-5.72511 9.01527,-8.53257 -1.56163,4.43835 -3.10116,8.92564 -3.79882,13.59571 -1.5805,0.54428 -2.61981,1.93668 -3.73243,3.10351 -1.6607,2.0787 -3.0243,4.37487 -4.45815,6.61109 -2.18071,3.63036 -4.23619,7.5028 -4.81362,11.75226 -0.36514,3.20016 0.90361,6.73926 3.77563,8.41722 2.8756,1.75593 6.49675,1.37271 9.52791,0.24394 5.80621,-1.96358 11.20496,-4.91259 16.70273,-7.58228 1.417,-0.70878 2.84026,-1.42793 4.27332,-2.12582 -2.92787,6.17311 -5.85623,12.34599 -8.78321,18.51953 2.16287,-1.26609 4.32451,-2.53428 6.48828,-3.79883 -0.90057,1.65096 -1.39996,3.61265 -0.9375,5.47461 -2.01534,0.58445 -3.16347,2.48802 -4.36741,4.05427 -4.25551,6.48383 -8.39676,13.08219 -12.53687,19.66215 -3.07876,5.01192 -6.26795,9.9657 -9.03712,15.15859 -1.22405,2.18412 -1.6043,4.68641 -2.32903,7.05401 -0.97586,3.54201 -1.95207,7.08391 -2.92878,10.62567 4.28423,-2.88226 8.54085,-5.6365 12.82031,-8.51562 1.67459,-1.00028 2.87446,-2.56636 4.21695,-3.94805 3.46407,-3.76126 6.49734,-7.88675 9.70887,-11.85957 3.22126,-4.07944 6.40637,-8.19882 9.53707,-12.34082 2.74719,-0.31223 4.7034,-2.47466 6.40949,-4.4428 4.83516,-5.39585 9.21805,-11.17383 13.65455,-16.89619 2.28991,-2.98786 4.55514,-5.9967 6.92033,-8.92664 1.68296,1.73785 4.22367,2.36305 6.57618,2.06641 -2.03825,5.57845 -5.02851,10.73488 -7.03299,16.33187 -2.02357,5.43315 -4.06088,10.86144 -6.09397,16.29118 5.41802,-4.05448 10.92059,-7.99617 16.30415,-12.09561 2.21722,-1.74935 4.28423,-3.7503 6.87085,-4.96517 5.79197,-3.00734 12.33788,-3.90038 18.56735,-5.60033 8.06412,-2.03847 16.19906,-4.67549 22.94532,-9.69862 4.65341,-3.38581 8.54837,-7.67934 12.18538,-12.10707 0.38081,-0.49419 0.77425,-0.97875 1.14258,-1.48242 3.6766,3.8205 8.69345,6.63546 14.09179,6.71093 2.70372,0.0651 5.4147,-0.48968 7.88868,-1.57812 0.58287,9.72085 1.31752,19.43589 2.34961,29.11914 0.23866,1.52825 0.71812,3.10078 1.62276,4.3433 1.74559,0.8812 3.67784,2.02966 5.70356,1.41475 2.61048,-0.51194 4.29325,-2.77692 5.63021,-4.8904 4.2229,-6.43498 8.0288,-13.14246 11.4893,-20.01559 3.97686,-8.26675 7.08604,-16.94306 9.4487,-25.80323 3.73242,3.97532 7.5433,8.07225 11.18036,12.21323 3.82775,4.45785 6.81331,9.73183 8.06937,15.50689 1.00883,4.46059 1.13249,9.09276 0.68649,13.63175 -0.62661,5.01391 -2.39784,9.79667 -3.10744,14.79638 -0.9542,5.39077 -1.90838,10.78154 -2.86394,16.17206 4.61961,-5.00007 9.27654,-9.96616 13.95117,-14.91406 2.81379,-3.25188 4.73295,-7.14128 6.83203,-10.86328 3.4097,-6.25337 6.4314,-12.71645 8.97623,-19.36991 2.60406,-6.63236 5.11985,-13.32059 6.99972,-20.19929 0.12376,-0.76016 0.2473,-0.91289 0.36678,-0.0921 1.28045,5.36553 2.59107,10.87848 5.68266,15.53822 1.6857,2.55192 3.78652,4.87622 6.30933,6.61915 2.13376,1.46253 5.06234,1.89218 7.37817,0.59374 2.46386,-1.29741 3.78777,-4.04292 4.01382,-6.73263 0.10115,-0.87202 0.0937,-1.75651 -0.004,-2.6287 3.39432,4.28585 7.31312,8.15441 11.703,11.41741 1.70859,1.23115 3.41332,2.51103 5.30286,3.44978 2.75387,1.18902 6.38136,0.36821 7.98954,-2.26724 1.835,-2.71452 1.35966,-6.27984 0.13587,-9.14069 -2.33117,-5.76882 -6.51021,-10.67418 -11.5132,-14.31915 -3.35808,-2.50172 -6.85494,-4.83179 -10.50163,-6.89148 -2.12037,-1.15615 -4.69201,-2.11641 -7.07347,-1.16269 -2.36458,0.87448 -4.0202,3.30188 -3.96484,5.82422 -3.08548,-2.64185 -6.79021,-4.37433 -10.22503,-6.49348 -0.30579,-0.25992 -1.37803,-0.65485 -1.24876,-0.83833 2.55039,-0.35805 4.72895,-2.38597 5.26089,-4.90843 0.35097,-1.40928 0.26151,-2.89231 -0.0469,-4.30078 3.8086,2.48204 8.01906,4.51208 12.52734,5.28906 3.26893,0.4964 6.60045,-0.20654 9.59511,-1.5314 4.74667,-1.97255 8.76525,-5.56626 13.85476,-6.71759 2.65971,-0.60892 5.41412,-0.21327 8.00248,0.52892 4.1175,1.04864 8.04897,2.70512 11.84089,4.60078 1.86795,0.79334 3.89988,1.03424 5.88059,1.39273 1.26647,-1.7693 2.529,-3.54141 3.79297,-5.3125 3.27546,3.17879 6.31287,6.59792 9.0566,10.24607 4.8559,6.19216 9.72416,12.37458 14.58793,18.56057 -1.1652,-7.39204 -2.35196,-14.7808 -3.49805,-22.17578 2.99652,-0.021 6.24295,0.0157 8.8125,-1.76758 1.78179,-1.15705 3.29473,-2.77061 4.18555,-4.71093 2.42559,2.65672 5.11115,5.10853 8.21725,6.94973 4.15402,2.74306 8.31525,5.47353 12.47611,8.20652 0.66811,1.36372 1.20728,2.81437 1.99219,4.10742 1.16978,1.40671 2.77991,2.34447 4.07391,3.62736 0.43013,0.29596 1.02059,1.26799 1.13776,0.2443 1.56342,-3.97605 3.30035,-7.88471 4.79262,-11.88699 1.64395,-5.09976 0.5577,-10.63203 -1.39896,-15.48222 -3.30071,-8.26448 -8.88589,-15.35926 -14.82171,-21.89033 -10.01654,-10.9661 -21.45203,-20.50879 -33.00201,-29.80059 -4.92823,-3.93261 -9.92423,-7.7793 -14.9613,-11.5713 3.15705,-1.40415 4.7897,-5.06437 4.41601,-8.39641 -0.17244,-2.34813 -1.30864,-4.49509 -2.78515,-6.28523 2.07931,1.20803 4.16825,2.69328 5.34556,4.84573 0.46267,1.31967 0.16903,2.81106 0.72866,4.12302 0.88165,2.97515 4.12501,5.0948 7.20305,4.42542 2.66168,-0.60261 4.49643,-2.78795 6.52848,-4.43881 6.5276,-5.75794 12.55268,-12.43867 15.96516,-20.54783 2.03805,-4.98679 3.05504,-10.45647 2.57781,-15.83904 -0.25251,-1.71398 -0.82111,-3.36929 -1.57333,-4.92591 28.90838,-0.0236 57.81737,0.072 86.72524,-0.12905 3.82586,-0.0718 7.67352,-0.0622 11.47007,-0.57994 0.58038,-0.15119 1.14543,-0.46113 1.71222,-0.0891 7.49089,2.40727 15.52957,3.26618 23.33591,2.17025 12.84431,-2.01261 24.5647,-10.02953 31.18237,-21.21006 4.6692,-7.73553 6.9172,-16.8817 6.408,-25.90038 -0.1111,-2.69645 -0.5299,-5.41834 -0.9959,-8.03907 0.8842,-0.44843 1.3444,-1.46904 1.1772,-2.43358 -0.1348,-8.65864 0.3556,-17.36288 -0.7373,-25.97809 -0.8778,-6.63552 -3.0537,-13.21369 -7.0963,-18.61259 -3.67987,-5.06185 -8.30334,-9.42703 -13.48116,-12.93068 -6.27076,-4.11745 -13.69035,-6.39124 -21.17803,-6.65569 -3.99451,-0.18043 -8.03815,-0.12344 -11.97544,0.6282 -2.52928,0.55825 -4.94923,1.50036 -7.43946,2.19727 -2.66244,-0.87444 -5.50843,-0.6788 -8.26817,-0.8552 -2.41584,-0.0756 -4.83286,-0.10377 -7.24941,-0.14871 -0.11287,-15.00065 -0.22375,-30.00131 -0.33789,-45.00195 -2.61653,-2.9e-4 -5.23307,10e-4 -7.84961,0.002 6.09259,-14.45057 12.36809,-28.82615 18.31055,-43.33789 0.99245,-3.04511 -0.70316,-6.70382 -3.76367,-7.75976 -1.88713,-0.77955 -3.96025,-0.79587 -5.96875,-0.85938 -0.73991,-0.0531 -1.77419,-0.0625 -2.62957,-0.0859 -11.48085,-0.24728 -22.96553,-0.12832 -34.44816,-0.16744 -18.60951,-0.003 -37.21902,-0.008 -55.82852,-0.0103 -0.10222,0.44752 0.31577,1.63725 -0.468,1.08306 -2.31438,-0.80153 -4.80996,-0.66928 -7.22068,-0.85419 -9.42981,-0.39954 -18.87111,-0.39385 -28.30672,-0.5741 -9.23149,-0.11801 -18.46323,-0.31133 -27.69505,-0.34528 -6.67453,0.11622 -13.34444,0.36495 -20.01658,0.57137 -1.36136,0.015 -2.95275,0.0759 -4.4043,0.0664 0.64964,-4.48987 2.60895,-8.6426 4.43555,-12.74999 2.21922,-4.74657 4.85717,-9.28598 7.09765,-14.01954 0.87533,-2.17251 0.85622,-5.04814 -1,-6.71093 -2.19842,-1.8956 -5.10403,-2.5875 -7.77494,-3.55192 -7.19035,-2.258 -14.449,-4.30997 -21.77715,-6.07214 -1.22479,-0.28719 -2.45197,-0.56262 -3.68228,-0.82516 1.13649,-2.77934 2.28689,-5.55297 3.43359,-8.32813 -3.37333,-1.52486 -6.65372,-3.25515 -10.08984,-4.63867 1.55343,-1.36192 3.10625,-2.72455 4.66016,-4.08594 -0.14176,-5.86217 0.13262,-11.74288 -0.37891,-17.58984 -0.35219,-1.79598 -1.42894,-3.33485 -2.37057,-4.8601 -1.5355,-1.95071 -4.84596,-1.94938 -6.37552,0.0105 -1.24282,1.20029 -2.60544,2.43457 -3.05467,4.17084 -2.24126,6.80462 -4.41268,13.63322 -6.60549,20.45416 -0.80957,0.11732 -1.61503,0.26802 -2.4082,0.46875 0.82078,-1.84514 1.56242,-3.89358 1.03183,-5.92789 -0.32539,-1.71794 -1.52367,-3.2087 -3.16164,-3.84265 -0.96937,-0.4466 -1.90724,-1.08204 -3.02058,-1.05954 -0.12141,-1.67406 -0.79468,-3.24927 -1.15033,-4.88231 -0.36511,-0.31899 -1.12,-0.1996 -1.63689,-0.34761 -1.65631,-0.2587 -3.41515,-0.87941 -5.06316,-0.32743 -2.14357,0.8906 -3.6569,2.76463 -4.70499,4.77448 -3.86038,6.50707 -7.44291,13.18114 -10.73798,19.99126 -0.61871,1.39976 -1.27599,2.85893 -1.21447,4.42443 -1.73009,-1.03256 -3.47711,-2.03798 -5.25586,-2.98438 1.0648,-9.35973 2.08664,-18.73283 3.3139,-28.07901 0.34862,-1.36367 0.54495,-2.81881 0.0552,-4.1788 -0.84317,-2.74442 -3.6741,-4.8094 -6.57812,-4.44141 -3.05375,0.26798 -5.59899,2.15705 -8.10395,3.74847 -4.16687,2.95101 -7.86907,6.49063 -11.62738,9.93099 -4.19351,3.92089 -8.21318,8.05865 -12.63195,11.71898 -1.12325,0.30099 -2.27339,-0.0783 -3.19141,-0.73242 -2.42244,-1.33718 -5.78943,-1.20333 -7.72876,0.92218 -1.29576,1.12371 -1.84515,2.86548 -1.72427,4.54367 0.1429,2.64498 1.63459,4.93673 2.70744,7.28371 1.97656,3.89373 4.03371,7.77854 6.60339,11.31706 1.20037,1.47993 2.67967,2.75914 4.40392,3.58963 -1.08609,3.50563 -1.88306,7.095 -2.51172,10.70898 -0.85237,-2.17435 -1.59059,-4.41045 -2.60701,-6.51002 -1.76843,-3.01155 -6.33652,-3.91279 -9.01213,-1.59935 -0.41166,0.22853 -0.69488,0.7998 -1.08398,0.92187 -4.14135,-1.50442 -8.02342,-3.61659 -11.99219,-5.51172 -5.71204,-8.01196 -11.35527,-16.05143 -16.95313,-24.1289 1.33097,0.73392 2.95448,1.24427 4.44019,0.68999 1.7152,-0.40658 3.28369,-1.52647 3.9895,-3.17437 1.34396,-2.54847 0.59506,-5.53423 -0.32043,-8.08946 -1.36733,-3.91038 -2.95434,-7.82358 -5.42377,-11.1786 -1.60874,-2.0733 -4.469,-3.16248 -7.01374,-2.35993 -3.00025,0.87845 -4.92197,4.06739 -4.70104,7.12408 0.016,1.65862 0.25426,3.31269 0.6914,4.91211 -5.10144,-7.36404 -10.03888,-14.84742 -15.44531,-21.99414 -1.25571,-1.42138 -3.12878,-2.0467 -4.875,-2.625 -2.19519,-0.33903 -4.40957,-0.5619 -6.61161,-0.86913 -1.80589,-0.23112 -3.61179,-0.46225 -5.41769,-0.69337 1.38217,1.38086 2.76433,2.76172 4.14649,4.14258 z m 136.13672,-1.83789 c -0.74099,0.0676 -1.41058,0.44081 -2.11914,0.64649 0.14155,0.65374 -0.11801,1.0924 -0.6674,1.42644 -1.67662,1.59131 -2.79625,3.668 -3.80545,5.72048 -1.06046,2.34568 -1.1618,5.33681 0.54316,7.41167 1.9114,2.50091 5.7875,3.02426 8.35111,1.23364 2.00308,-1.3089 3.55255,-3.21884 4.83639,-5.21216 1.30928,-2.11981 1.75638,-4.87587 0.63685,-7.17269 -1.07367,-2.48521 -3.74805,-4.12095 -6.44695,-3.97502 -0.43896,-0.0559 -0.88627,-0.12417 -1.32857,-0.0788 z m 78.1875,10.93555 c -3.25482,0.14928 -5.85141,2.35443 -8.40551,4.12923 -3.88088,2.80571 -7.0538,6.49569 -9.53218,10.57627 -1.35563,2.14634 -2.71998,4.37278 -3.3377,6.857 -0.56897,2.89844 1.01703,6.18588 3.87623,7.17859 2.70594,1.1068 5.74741,-0.0949 7.84386,-1.90763 5.73206,-4.57462 10.74003,-10.10584 14.53975,-16.38644 1.37908,-2.34532 1.77777,-5.5575 0.0719,-7.84561 -0.99783,-1.34272 -2.50596,-2.39813 -4.20607,-2.52011 -0.28145,-0.0445 -0.56482,-0.084 -0.85026,-0.0813 z m 68.42969,14.32031 c -4.46082,0.32755 -8.67543,1.98546 -12.87682,3.40075 -6.54227,2.31817 -12.86363,5.2641 -18.78973,8.88206 -3.84202,2.2437 -7.71469,4.49126 -11.20532,7.26087 -1.80037,1.61174 -2.90679,4.28102 -1.96798,6.6321 0.42346,1.53138 1.47217,2.86915 2.93882,3.51784 2.25198,1.20018 4.93785,0.66855 7.17495,-0.27928 8.57902,-3.20876 16.84253,-7.18489 25.09304,-11.14513 4.3625,-2.1498 8.73484,-4.30946 12.89164,-6.83779 2.24689,-1.53513 3.62011,-4.53321 2.66086,-7.1872 -0.7364,-2.53502 -3.31321,-4.28088 -5.91946,-4.24422 z m -305.74415,0.0195 c -0.75943,0.0477 -1.46105,0.39674 -2.19531,0.57617 -0.0246,0.59395 0.16831,1.2609 -0.41862,1.62747 -1.8354,2.07602 -1.97097,5.10619 -1.27776,7.67222 0.90109,3.59366 2.79145,6.8598 4.90588,9.86887 2.33064,3.2 5.07392,6.15907 8.34112,8.41605 1.8997,1.27717 4.42567,1.73458 6.55365,0.75209 2.64341,-1.09015 4.18345,-4.11184 3.71183,-6.90261 -0.32366,-2.54467 -1.57301,-4.84274 -2.64618,-7.13331 -2.70339,-5.12691 -6.57481,-9.57688 -10.94922,-13.3457 -1.36852,-1.05751 -3.11444,-1.42511 -4.80934,-1.44213 -0.40183,-0.0559 -0.81005,-0.11745 -1.21605,-0.0891 z m -46.61523,0.47852 c -2.68593,0.0766 -5.2523,2.06764 -5.72266,4.76172 -0.61796,2.72685 0.70625,5.34977 1.71701,7.80266 2.69255,5.9276 7.45688,10.67462 12.83377,14.23054 -1.84653,1.76908 -2.47097,4.64009 -1.48992,7.0068 1.15052,2.94275 4.10808,4.60707 6.9263,5.648 3.52909,1.22553 7.50577,1.42172 11.05581,0.17918 2.72474,-1.06392 4.9655,-3.79062 4.72071,-6.82031 -0.0533,-0.7648 -0.24477,-1.52178 -0.56446,-2.21875 1.24089,-2.57944 0.39245,-5.71191 -1.41987,-7.79935 -3.4306,-4.54884 -7.28957,-8.76142 -11.2815,-12.81999 -2.2299,-2.26223 -4.7542,-4.20498 -7.43026,-5.909 -2.24809,-1.45111 -4.51853,-2.98831 -7.09823,-3.77697 -0.72921,-0.20226 -1.48921,-0.31729 -2.2467,-0.28453 z m 94.43359,27.86133 c 0.14527,0.77108 -0.47411,-0.11956 -0.39648,-0.56641 -0.27438,-0.85523 0.27675,0.41176 0.39648,0.56641 z m -170.98632,9.86718 c -4.39671,0.16938 -9.01482,0.37022 -12.93362,2.6062 -2.39014,1.16613 -4.56786,3.46005 -4.50048,6.27114 -0.0375,2.92546 2.28741,5.30262 4.83422,6.39954 4.94018,2.52962 10.39744,3.96214 15.92008,4.40885 8.18756,0.81446 16.42393,0.88326 24.63997,1.18365 6.54502,0.17446 13.09794,0.40197 19.64334,0.15992 1.7484,-0.18149 3.29696,-1.13284 4.50959,-2.36287 1.77023,-1.48908 3.54046,-2.97816 5.31072,-4.46721 -2.56908,-1.43101 -5.00094,-3.08964 -7.55212,-4.54867 -1.85106,-0.93891 -3.92235,-1.20253 -5.83264,-1.78531 -9.25499,-2.36997 -18.54529,-4.61314 -27.88086,-6.64063 -5.32103,-1.00135 -10.75074,-1.31879 -16.1582,-1.22461 z m 401.79492,6.19727 c -3.68565,0.22557 -7.62156,0.43183 -10.80664,2.51367 -2.59479,1.84456 -3.64744,5.74941 -1.855,8.4892 1.43996,2.44143 4.3783,3.37502 7.04983,3.61185 4.00197,0.58935 8.08063,0.20117 12.00567,-0.69961 2.51503,-0.48307 5.33246,-1.27946 6.76825,-3.59089 1.58782,-2.50705 1.15622,-6.18223 -1.25579,-8.02063 -2.24958,-1.87898 -5.32281,-2.03146 -8.11123,-2.26593 -1.26343,-0.0735 -2.53029,-0.0612 -3.79509,-0.0377 z M 205.04268,503.41847 c -1.4585,5.49726 -4.678,10.27861 -7.79961,14.95156 -0.33034,0.36965 -0.55137,1.09702 -0.94202,1.26412 -1.57415,-0.63142 -3.14871,-1.4417 -4.25642,-2.76256 4.16035,-4.46516 8.3589,-8.89262 12.54017,-13.33757 0.30647,-0.26746 0.77075,-1.06223 0.45788,-0.11555 z m 433.86718,8.89062 c -4.24258,-0.22291 -7.79121,4.58819 -5.9707,8.53321 0.99706,2.47492 3.42116,3.92866 5.79394,4.86805 2.4986,1.04018 5.20377,1.86088 7.93605,1.67936 3.14715,-0.31223 6.00205,-3.03643 6.01415,-6.27984 0.12215,-2.78651 -1.85149,-5.34085 -4.40651,-6.30285 -2.68626,-1.25559 -5.5772,-2.12771 -8.52347,-2.47279 -0.2804,-0.023 -0.56229,-0.0278 -0.84346,-0.0251 z m -23.04101,15.4668 c -0.80209,0.0234 -1.60417,0.0469 -2.40625,0.0703 -0.0241,0.5188 0.57227,1.23821 0.0682,1.60522 -1.29759,1.00831 -1.71209,2.73031 -1.80919,4.2897 -0.0883,2.42665 1.50007,4.49486 3.31128,5.93516 5.63854,4.33084 11.9879,7.71744 18.70374,10.04732 2.54761,0.90265 5.10368,1.83764 7.67348,2.64104 2.33495,0.0419 4.81252,-1.00376 5.93008,-3.14963 1.60035,-2.74542 0.88991,-6.50931 -1.5134,-8.5627 -2.49228,-2.37579 -5.39491,-4.26946 -8.27612,-6.13339 -4.59016,-2.90704 -9.73917,-4.81306 -14.98653,-6.14342 -2.0319,-0.47843 -4.11424,-0.80224 -6.20549,-0.61382 -0.16328,0.005 -0.32655,0.009 -0.48982,0.0142 z M 172.2126,544.12745 c -3.01276,0.19724 -5.86636,1.64764 -8.07227,3.66211 -2.82261,2.7744 -4.38719,7.08109 -3.2327,10.9615 0.71725,2.09642 2.65288,3.63468 4.78544,4.11272 -2.50812,3.13463 -4.68728,6.53536 -6.57048,10.07899 -1.01853,1.94137 -2.07009,4.05241 -1.73848,6.31499 0.21193,2.78285 2.57537,5.12502 5.32458,5.44391 1.92311,0.32559 3.77152,-0.4536 5.45091,-1.29923 5.12342,-2.49985 9.29908,-6.55745 12.92018,-10.88827 3.26345,-4.19567 5.82247,-8.88205 8.30032,-13.56804 0.97922,-1.89855 1.62034,-4.13341 0.94968,-6.24055 -0.17407,-0.74266 -0.30441,-1.49453 -0.45507,-2.24219 -1.87693,-0.64465 -3.54594,-2.14253 -5.64453,-1.91602 -1.91839,0.25304 -3.65743,1.22083 -5.1875,2.36328 0.15203,-3.42972 -2.75956,-6.67338 -6.21316,-6.77336 -0.20501,-0.0218 -0.41124,-0.007 -0.61692,-0.01 z m 77.99023,67.81445 c -3.11307,0.1247 -5.64698,2.15 -8.14839,3.7751 -3.42423,2.38635 -6.81455,4.937 -9.49223,8.16631 -1.69606,2.27405 -1.91514,5.70337 -0.041,7.94336 1.96429,2.52333 5.68902,3.00438 8.52265,1.80277 5.92604,-1.99752 10.6975,-6.45387 14.26446,-11.47269 1.57627,-2.39321 1.73795,-5.88693 -0.28563,-8.07663 -1.17742,-1.38152 -3.00358,-2.19916 -4.81984,-2.13822 z m 154.44336,13.69336 c -0.20051,0.45045 -0.85768,0.69261 -1.16866,1.13922 -2.13257,2.3251 -2.89661,5.51595 -3.52807,8.51949 -0.46981,2.73066 -0.76137,5.754 0.69084,8.25566 1.24507,2.44325 4.05882,4.16452 6.82816,3.57587 2.5011,-0.45783 4.4696,-2.48195 5.26758,-4.83985 1.49139,-3.73624 1.99213,-7.85531 1.5996,-11.84961 -0.20895,-2.08662 -1.38572,-4.07899 -3.2784,-5.05336 -1.6492,-0.88615 -3.46473,-1.41163 -5.13022,-2.27192 -0.40942,-0.0337 -1.43562,-1.02585 -1.28083,-0.18292 0,0.90248 0,1.80495 0,2.70742 z" />
    <path
       style="fill:#000000;stroke-width:1.75129"
       d="m 283.8184,679.366 c 2.09903,-3.90916 20.31362,-32.79684 20.67943,-32.79684 0.11139,0 -0.1063,0.81747 -0.48333,1.81658 -0.90251,2.39103 -0.21762,4.16207 1.44176,3.72814 0.84529,-0.22105 1.12263,-0.0862 0.83349,0.40537 -1.44211,2.45159 -18.88319,24.78224 -21.43902,27.44938 l -3.08401,3.21836 z m 204.66767,-19.10496 c 2.0758,-7.92492 2.44021,-10.29242 2.45058,-15.92079 0.0186,-10.05791 -2.89334,-18.48034 -9.14724,-26.45805 -3.02542,-3.85935 -19.76822,-21.74793 -20.07128,-21.44487 -0.10578,0.10578 -1.18515,4.04948 -2.39851,8.76369 -2.20342,8.56078 -4.898,16.19666 -8.59665,24.36102 -3.20978,7.08522 -13.15991,23.89094 -13.77211,23.26099 -0.33395,-0.34366 -2.14224,-22.59818 -2.59532,-31.9407 l -0.4273,-8.8108 -2.6268,2.53243 c -3.59107,3.46203 -6.47739,4.81788 -10.29842,4.83771 -4.1876,0.0217 -8.32742,-2.36345 -11.8331,-6.81764 -1.4326,-1.82024 -2.78847,-3.36626 -3.013,-3.43558 -0.22455,-0.0693 -1.41126,1.46914 -2.63716,3.41882 -2.8006,4.45408 -9.31786,11.56142 -13.24498,14.44419 -6.86018,5.03585 -12.80171,7.25706 -30.05959,11.23768 -6.8605,1.58242 -12.7822,4.24089 -16.46139,7.39012 l -2.50989,2.14839 3.55163,-7.74394 c 2.49007,-5.42931 3.63779,-8.78287 3.83989,-11.21982 l 0.28824,-3.47589 -4.86196,0.4556 c -4.68215,0.43875 -4.86197,0.40532 -4.86197,-0.90401 0,-1.79411 1.30693,-4.25132 5.93961,-11.16726 l 3.83928,-5.73149 -4.07308,3.75674 c -2.24017,2.0662 -5.46615,4.85793 -7.16882,6.20381 -1.73768,1.37355 -6.74535,7.2686 -11.41495,13.43772 -10.85908,14.34621 -18.96364,24.05071 -18.96364,22.70731 0,-2.00403 2.55592,-6.03854 9.67536,-15.27259 4.70322,-6.10016 8.757,-11.4351 9.00837,-11.85543 0.2514,-0.42033 -1.40743,0.0811 -3.68628,1.11445 -2.27883,1.03328 -4.99728,1.87868 -6.04098,1.87868 -1.57568,0 -2.18256,0.48619 -3.57706,2.86575 -0.9237,1.57616 -1.82274,2.86574 -1.99787,2.86574 -0.17512,0 0.4397,-1.29359 1.36625,-2.87465 0.92658,-1.58108 1.51003,-3.15724 1.29661,-3.50258 -0.21345,-0.34535 -0.0895,-0.62792 0.27561,-0.62792 0.76828,0 3.8693,-5.85246 3.8693,-7.3024 0,-1.31208 -0.386,-1.24443 -3.58,0.62738 l -2.73665,1.60378 2.25308,-4.74436 c 2.71776,-5.72282 2.68047,-7.61499 -0.15551,-7.8909 -1.49198,-0.14518 -5.15868,1.40469 -14.64714,6.19106 -13.50167,6.81083 -18.00824,8.46077 -19.84787,7.26671 -2.18434,-1.41784 -0.43055,-6.76957 4.80004,-14.64742 1.23903,-1.86612 2.31578,-3.39296 2.39275,-3.39296 0.0769,0 0.004,0.71643 -0.16445,1.59208 -0.39798,2.08194 0.30108,2.00818 3.53967,-0.37352 2.72651,-2.00508 3.1659,-2.74912 2.03596,-3.44748 -1.37636,-0.85063 -0.53926,-6.00555 2.27511,-14.0103 4.47594,-12.73065 5.01318,-14.95531 3.88427,-16.08424 -2.01433,-2.01432 -5.09901,0.10332 -17.73163,12.17262 -11.31859,10.81388 -12.36479,11.64736 -16.3403,13.01779 -11.3751,3.9212 -19.10252,4.7621 -21.74936,2.36674 -1.16556,-1.0548 -1.68429,-0.67186 -13.82524,10.20614 -10.24775,9.18174 -12.6508,11.05831 -12.80904,10.00278 -0.37014,-2.46899 -2.34589,-3.42302 -9.02104,-4.356 -7.91006,-1.10557 -11.21253,-2.64602 -12.55362,-5.85569 -2.36196,-5.65298 2.43841,-14.41511 15.35217,-28.02232 l 3.80077,-4.00486 -2.83117,1.28434 c -1.55712,0.70638 -3.76961,1.29063 -4.91661,1.29832 -3.07751,0.0207 -3.60881,-1.86803 -2.84949,-10.12924 0.68826,-7.48793 0.22615,-10.65394 -1.77542,-12.16371 -1.34814,-1.01692 -1.18214,-1.1845 8.86279,-8.94727 l 10.23667,-7.91095 0.014,-2.87567 c 0.0306,-6.05642 -4.05446,-9.6015 -13.67731,-11.86919 -2.45181,-0.57779 -4.6588,-1.22238 -4.90443,-1.43245 -0.24564,-0.21007 1.14639,-2.67418 3.09338,-5.47579 7.21308,-10.37923 9.94038,-18.10819 8.61665,-24.41907 -1.09276,-5.20982 -4.32026,-9.40888 -14.08742,-18.32807 l -8.57256,-7.82831 -2.00608,1.23983 c -6.02921,3.72625 -16.80626,6.35029 -26.08094,6.35029 -14.76372,0 -27.85314,-5.34104 -38.66136,-15.77549 l -4.29615,-4.1476 -4.39643,4.14737 c -7.30077,6.88718 -14.98266,11.37971 -23.766817,13.89935 -6.048737,1.73502 -17.289306,2.32549 -23.919331,1.2565 -21.536768,-3.4725 -39.069349,-19.54526 -44.824849,-41.09261 -1.969219,-7.37231 -1.970129,-19.59362 -0.002,-27.06535 5.3886,-20.45731 21.240641,-35.78137 41.915487,-40.51943 3.441157,-0.7886 7.329033,-1.11842 12.615977,-1.07021 7.231014,0.066 9.427129,0.43274 18.627325,3.11114 l 1.432886,0.41714 v -49.42874 -49.42874 h 23.546412 23.54643 l 1.06606,2.06154 1.06607,2.06153 0.9432,-1.99158 c 0.72467,-1.53017 1.47739,-2.08104 3.2489,-2.37771 1.26815,-0.21236 18.35388,-0.20687 37.9683,0.0123 25.08597,0.28017 36.76671,0.18814 39.38551,-0.31034 2.51249,-0.47823 4.10979,-0.50159 4.91279,-0.0718 0.73296,0.39227 7.84986,0.5717 18.53457,0.46729 l 17.34474,-0.16952 -4.02161,-4.29863 c -2.30252,-2.46112 -3.61295,-4.29862 -3.06561,-4.29862 0.52581,0 3.58018,2.00603 6.78747,4.45783 l 5.83145,4.45782 h 11.48911 11.48912 l -3.42782,-3.98019 c -8.58099,-9.96382 -8.88282,-10.42478 -8.42483,-12.86614 0.23305,-1.24224 0.60675,-2.25244 0.83046,-2.24489 0.22373,0.007 1.52702,1.57751 2.89623,3.48879 6.10814,8.5263 9.38149,10.31955 6.07359,3.32727 -1.31793,-2.78582 -1.87547,-4.93681 -1.87582,-7.23686 -7.2e-4,-4.65729 1.07504,-5.64615 7.53447,-6.92576 5.99657,-1.18792 7.33825,-1.08279 21.23731,1.66416 9.55933,1.88927 18.05892,2.39085 20.28906,1.19732 1.15549,-0.6184 1.11067,-0.81409 -0.91172,-3.98021 -2.04261,-3.19781 -6.75555,-12.17393 -6.75555,-12.86641 0,-0.9414 1.12853,-0.11506 2.10846,1.54378 2.55523,4.32568 8.83391,12.19999 9.54315,11.96844 1.00731,-0.32889 2.27356,-4.03437 2.33787,-6.84137 0.0504,-2.20468 0.0669,-2.19083 1.51274,1.27366 0.80393,1.92641 2.21666,4.93544 3.13939,6.68673 l 1.6777,3.18415 0.0296,-4.06551 c 0.0404,-5.54622 1.15748,-8.8437 3.93759,-11.6238 2.65452,-2.65453 7.70929,-4.12123 11.65321,-3.38135 1.24858,0.23424 2.27014,0.27823 2.27014,0.0977 0,-0.18047 -1.02946,-2.14675 -2.28771,-4.3695 -7.09676,-12.53691 -24.92893,-48.6806 -24.3186,-49.29094 0.13782,-0.13783 5.87233,7.98097 12.7434,18.04169 6.87107,10.06071 16.11724,23.3998 20.54703,29.64239 l 8.05417,11.35015 7.29373,3.56159 c 8.55215,4.17609 12.32549,4.78174 12.98119,2.08353 0.21194,-0.87211 0.54791,-1.30196 0.74658,-0.95524 0.19866,0.34672 2.7656,7.22163 5.70429,15.27755 4.60949,12.63617 5.3643,14.29739 5.49766,12.0998 1.09103,-17.97896 2.81416,-28.52865 6.01562,-36.83033 3.44604,-8.93588 8.90484,-12.79294 16.08784,-11.36727 1.76838,0.35098 3.29637,0.5591 3.39555,0.46248 0.0991,-0.0967 -0.0186,-1.41933 -0.26161,-2.93934 -0.80037,-5.00535 -4.76662,-7.11364 -8.59076,-4.56652 -2.00728,1.33697 -3.92138,3.61576 -7.47918,8.90409 -4.7876,7.11633 -6.32521,7.8417 -9.62588,4.54101 -1.63843,-1.63843 -8.29339,-14.04453 -8.29339,-15.46044 0,-0.22348 0.71766,0.0639 1.59481,0.63862 1.85993,1.21869 5.97961,1.31634 8.08327,0.19163 0.80656,-0.43122 5.78275,-4.97688 11.05823,-10.10148 5.27549,-5.12458 11.43443,-10.52142 13.68657,-11.99298 4.15654,-2.71588 5.88261,-3.31898 5.3791,-1.8795 -0.23008,0.65777 -1.22003,8.90091 -3.74716,31.20194 -0.25893,2.28501 -0.15516,2.4362 2.46816,3.59664 2.21371,0.97923 13.06068,7.56575 13.06028,7.93049 -5e-5,0.0538 -0.42992,2.34404 -0.95524,5.08934 -1.13356,5.92384 -1.16189,11.99972 -0.07,15.02057 l 0.78818,2.18075 2.05621,-6.00173 c 3.42544,-9.99834 9.12443,-20.85291 13.39587,-25.51445 7.67205,-8.37269 16.56634,-10.24354 26.5001,-5.57412 l 2.7543,1.29468 -1.85601,4.50088 c -1.02081,2.47549 -1.85601,4.71864 -1.85601,4.98477 0,0.26612 1.93438,0.81231 4.29862,1.21373 7.84738,1.33241 31.05171,7.92764 32.47693,9.23072 0.0867,0.0793 -1.14535,2.55688 -2.73797,5.5057 -6.13033,11.3507 -9.28098,19.54879 -9.42543,24.52525 -0.16549,5.70214 -0.44614,5.61431 16.14004,5.05157 7.88358,-0.26747 15.48007,-0.45412 16.8811,-0.41477 1.40103,0.0394 15.22824,0.24033 30.72713,0.44663 21.72371,0.28914 28.17981,0.55514 28.17981,1.16102 0,0.43227 1.63963,1.48348 3.64361,2.336 2.00398,0.85253 3.8667,1.64558 4.13939,1.76234 0.27271,0.11681 0.49581,-0.9579 0.49581,-2.38812 v -2.6004 h 45.60776 c 43.13504,0 45.59015,0.0604 45.28319,1.11446 -0.17851,0.61295 -5.08371,12.25325 -10.90042,25.86734 -5.81671,13.61409 -10.57585,24.86212 -10.57585,24.99564 0,0.13345 2.43222,0.24276 5.40493,0.24276 h 5.40493 l 0.16742,22.44834 0.16742,22.44832 10.0301,0.17537 c 7.65391,0.1338 10.0301,0.36923 10.0301,0.99366 0,0.58528 1.58666,0.2818 5.57228,-1.06579 4.7417,-1.60326 6.56897,-1.88758 12.25901,-1.90747 11.38018,-0.0398 19.85219,3.48401 28.03829,11.66212 8.75181,8.74329 11.41573,16.49846 11.43424,33.28746 l 0.0105,10.03009 h -1.5253 -1.5253 l 1.27282,3.98021 c 0.70006,2.18911 1.42353,6.5936 1.60773,9.78773 1.11522,19.33931 -11.49577,36.3509 -30.20629,40.74677 -7.45017,1.75036 -17.94739,0.69288 -25.82407,-2.60148 -0.79242,-0.33143 -1.11447,-0.1704 -1.11447,0.55726 0,0.93212 -4.94521,1.02338 -55.45387,1.02338 h -55.45389 l 2.75606,2.07408 c 1.66384,1.25214 3.4715,3.46037 4.56143,5.57229 1.61588,3.13097 1.77236,3.96617 1.49046,7.95603 -0.6005,8.49905 -5.26101,16.71941 -14.24396,25.12393 -3.01307,2.81907 -5.72277,5.12556 -6.02154,5.12556 -0.29879,0 -0.54323,-0.94564 -0.54323,-2.10144 0,-4.48979 -5.22196,-9.64546 -12.7203,-12.55886 -1.91745,-0.745 -7.36237,-2.48555 -12.09983,-3.86792 -4.73744,-1.38234 -9.17982,-2.69064 -9.87195,-2.90731 -0.69211,-0.21667 1.60048,1.88551 5.09467,4.67151 7.14439,5.69643 14.14322,12.99834 14.74076,15.37912 0.21839,0.87013 0.11033,2.03919 -0.24026,2.59793 -0.96398,1.5366 -6.68792,1.59056 -12.2694,0.11559 -2.61731,-0.69162 -4.81842,-1.19783 -4.89132,-1.12492 -0.0729,0.0729 4.99407,3.9516 11.25997,8.61931 36.89753,27.48633 56.41514,46.13052 63.71639,60.86507 3.005,6.06437 3.85186,11.37277 2.3852,14.95149 l -0.8893,2.16994 -2.68401,-5.85906 c -2.94435,-6.4274 -6.78299,-11.09502 -11.30289,-13.74386 -5.59671,-3.2799 -6.89291,-1.4128 -3.49871,5.0397 l 1.89258,3.59784 -1.87619,-1.33597 c -1.03191,-0.73477 -3.80936,-3.54264 -6.17213,-6.23971 -5.64373,-6.44225 -14.61335,-15.40578 -17.28955,-17.2778 -1.94986,-1.36396 -1.78197,-0.98578 1.99225,4.48704 4.6249,6.70637 7.08147,11.33026 7.67798,14.45193 0.32595,1.70578 0.10647,2.40318 -1.15207,3.66178 -1.34455,1.34455 -2.14198,1.55469 -5.89976,1.55469 -5.61793,0 -7.46987,1.12527 -6.96564,4.23246 l 0.34926,2.15229 -2.60887,-3.35157 c -3.32727,-4.27448 -11.08047,-11.88009 -19.96104,-19.58108 -6.2212,-5.39488 -6.60382,-5.63976 -3.58128,-2.29226 9.66585,10.70508 8.38207,11.15906 -5.14048,1.8178 -3.76809,-2.60296 -7.17107,-4.62597 -7.56218,-4.49561 -0.39112,0.1303 3.65555,4.59538 8.99258,9.92226 5.33703,5.32687 9.51667,9.68521 9.28809,9.68521 -0.22858,0 -1.61663,-0.61272 -3.08454,-1.36159 -4.0049,-2.04316 -10.78313,-4.21484 -14.67166,-4.70068 -5.06861,-0.63329 -9.63099,0.5647 -15.43271,4.05227 -8.3931,5.04532 -10.95129,5.51247 -16.86422,3.07969 -4.84345,-1.99277 -8.4188,-4.56976 -15.6246,-11.26159 -5.60864,-5.20861 -7.28595,-6.43924 -7.28595,-5.34564 0,0.21078 1.56047,3.72131 3.46771,7.80118 3.49651,7.47955 5.34156,13.14966 4.53979,13.95142 -0.23912,0.23914 -0.63412,0.1359 -0.87778,-0.22954 -1.64957,-2.47377 -14.29706,-19.35898 -14.5004,-19.35898 -0.13905,0 0.35521,1.50451 1.09825,3.34336 4.1112,10.17425 6.00396,18.88372 5.4329,24.99918 -0.36802,3.94087 -6.05363,19.97905 -11.06099,31.20124 -2.4586,5.51002 -8.39548,16.40711 -10.06169,18.46811 l -1.02969,1.27366 z m -79.45935,-53.8593 c 0.4019,-0.84978 0.91051,-2.54807 1.13028,-3.77398 0.36651,-2.04459 0.24273,-1.93927 -1.49672,1.27366 -1.04296,1.92642 -1.90979,3.7414 -1.92633,4.03327 -0.0604,1.06716 1.58261,-0.0313 2.29277,-1.53295 z m 52.46364,-37.52607 c -0.76489,-6.64104 -3.59687,-21.3311 -4.38311,-22.73604 -0.35484,-0.63405 -0.99284,0.0273 -2.24394,2.32596 -0.96147,1.76656 -1.57604,3.49037 -1.36571,3.83071 0.56747,0.91819 7.95232,30.44777 8.1048,32.40844 0.072,0.9261 0.23307,-0.89535 0.35786,-4.04767 0.12487,-3.15231 -0.0867,-8.45395 -0.4699,-11.7814 z m -114.89,-3.96187 c 10.54799,-8.67036 17.54337,-15.21793 17.20388,-16.10263 -0.51642,-1.34572 -4.51316,-6.60116 -5.05199,-6.643 -0.50369,-0.0391 -29.74182,26.60684 -29.74182,27.10497 0,0.14291 4.29176,-2.61057 9.53723,-6.11875 5.24549,-3.50818 9.71023,-6.37852 9.92166,-6.37852 0.3105,0 -4.46563,6.05324 -11.76627,14.91253 -0.98715,1.19788 -0.96887,1.19919 0.98166,0.0704 1.09316,-0.6326 5.1052,-3.71287 8.91565,-6.84501 z m -17.18701,-32.78371 c -0.57148,-0.57148 -2.21939,0.68988 -2.91663,2.2325 l -0.77572,1.71625 1.95649,-1.86407 c 1.07606,-1.02524 1.85721,-1.96335 1.73586,-2.08468 z m 13.59029,-12.88603 c 0.73888,-1.78384 1.02226,-1.90766 4.76758,-2.08337 l 3.98201,-0.18681 -3.27447,-11.14454 c -4.35759,-14.83088 -3.6252,-13.4791 -7.17837,-13.24942 l -3.007,0.19436 -3.02361,10.50772 c -1.66297,5.77925 -3.20127,11.29581 -3.41841,12.25902 l -0.39481,1.75128 h 3.88188 c 3.80028,0 3.90397,0.0462 4.93179,2.20163 1.18679,2.48874 1.61526,2.44957 2.73341,-0.24987 z m -3.5138,-3.13622 c 0.20677,-0.65146 0.74913,-2.44256 1.20523,-3.98021 l 0.82931,-2.79572 1.06658,3.60058 c 0.58663,1.98032 1.06659,3.77142 1.06659,3.9802 0,0.20879 -1.02231,0.37961 -2.27182,0.37961 -1.925,0 -2.21443,-0.18082 -1.89589,-1.18446 z m 87.02048,0.0482 c 5.96385,-3.11556 8.49947,-10.33607 5.75285,-16.38202 -2.02473,-4.4569 -7.23723,-7.94783 -11.86737,-7.94783 -4.63014,0 -9.84264,3.49093 -11.86737,7.94783 -2.89618,6.37518 0.093,13.85523 6.77272,16.94782 3.68224,1.70483 7.20285,1.52713 11.20917,-0.5658 z m -8.69079,-8.70562 c -0.85972,-0.85972 -1.56314,-1.97428 -1.56314,-2.47677 0,-1.72122 2.24517,-3.7613 4.13941,-3.7613 1.83903,0 4.13941,2.02644 4.13941,3.64647 0,1.39286 -2.58998,4.15473 -3.89616,4.15473 -0.69102,0 -1.95981,-0.7034 -2.81952,-1.56313 z m 59.41933,9.20855 c 4.03716,-2.46148 4.60617,-4.2899 4.60883,-14.80978 l 0.002,-9.39327 h -4.13941 -4.1394 v 8.59722 c 0,5.30695 -0.24372,8.59723 -0.63683,8.59723 -0.3931,0 -0.63683,-3.29028 -0.63683,-8.59723 v -8.59722 h -4.13941 -4.13941 v 9.63653 c 0,8.53498 0.14606,9.87281 1.27763,11.70376 2.4362,3.94185 7.98934,5.27301 11.94245,2.86276 z m 25.62666,-11.46641 v -12.73664 h -4.13939 -4.13942 v 8.27241 8.27242 l 3.98021,4.42797 c 2.18911,2.43538 4.05183,4.44428 4.13939,4.46421 0.0876,0.02 0.1592,-5.69522 0.1592,-12.70037 z m 20.06021,11.4626 c 1.40103,-0.68534 3.01861,-1.58989 3.59463,-2.0101 0.87105,-0.63545 1.32313,-0.4502 2.6864,1.10084 l 1.63912,1.86488 0.0201,-5.8907 0.0201,-5.89068 h -4.3468 c -3.8132,0 -4.53042,0.19544 -5.84251,1.59207 -1.88662,2.00822 -3.45439,2.01656 -5.44202,0.0289 -1.86374,-1.86375 -1.95281,-2.90919 -0.41018,-4.81424 1.49644,-1.84803 4.44799,-1.88323 5.91581,-0.0706 0.93081,1.14951 1.77561,1.35327 5.61076,1.35327 5.04723,0 5.15132,-0.1296 3.32727,-4.14488 -2.02474,-4.4569 -7.23723,-7.94783 -11.86737,-7.94783 -4.63015,0 -9.84266,3.49093 -11.86738,7.94783 -4.75315,10.46282 6.7267,21.88791 16.96203,16.88114 z m 25.00147,0.003 c 4.03716,-2.46149 4.60617,-4.2899 4.60883,-14.80978 l 0.002,-9.39328 h -4.13941 -4.1394 v 8.59723 c 0,5.30694 -0.24372,8.59723 -0.63684,8.59723 -0.39311,0 -0.63683,-3.29029 -0.63683,-8.59723 v -8.59723 h -4.1394 -4.13941 v 9.63653 c 0,8.53499 0.14606,9.87281 1.27763,11.70377 2.4362,3.94185 7.98934,5.273 11.94245,2.86276 z M 261.50625,504.87378 v -12.41822 h -4.13942 -4.13939 v 12.41822 12.41823 h 4.13939 4.13942 z m 7.79114,10.55997 c 1.78556,-1.59539 2.07974,-2.27841 2.07974,-4.82848 0,-2.55241 -0.29367,-3.23263 -2.08779,-4.83567 -2.07258,-1.85186 -2.07887,-1.87507 -0.86057,-3.18275 1.61045,-1.72861 1.97428,-3.86812 1.03687,-6.09755 -1.01403,-2.41164 -2.29326,-3.38424 -5.03683,-3.82945 l -2.28573,-0.37092 v 12.50153 12.50155 h 2.53729 c 1.90363,0 3.05666,-0.46408 4.61702,-1.85826 z m 17.63454,-0.52987 c 0.73466,-2.74849 5.14225,-21.75068 5.14225,-22.16946 0,-0.15341 -1.86274,-0.27886 -4.13941,-0.27886 -2.27667,0 -4.13941,0.17802 -4.13941,0.3956 0,0.21756 -0.84868,4.01469 -1.88597,8.43802 -1.03728,4.42333 -2.30145,9.83351 -2.80927,12.02262 l -0.92328,3.98021 h 4.05838 4.05838 z m 27.49485,-0.95524 0.0634,-3.34337 1.32804,3.02495 c 0.73043,1.66372 1.52337,3.02495 1.76211,3.02495 0.23873,0 1.11032,-1.50452 1.93684,-3.34337 l 1.50278,-3.34336 0.20598,3.66178 0.20601,3.66179 h 3.47078 3.47079 v -12.41823 -12.41822 h -3.55625 -3.55627 l -1.68876,3.821 c -0.92883,2.10154 -1.83604,3.81992 -2.01603,3.81861 -0.17998,-10e-4 -0.87299,-1.36256 -1.54002,-3.02497 -1.7571,-4.37923 -2.05657,-4.61464 -5.87035,-4.61464 h -3.4246 v 12.41822 12.41823 h 3.82099 3.82099 z m 50.88306,-4.93544 v -8.27881 h 1.9105 1.91049 v -4.13942 -4.13941 h -8.27881 -8.27882 v 4.13941 4.13942 h 2.22891 2.22892 v 8.27881 8.27881 h 4.13941 4.1394 z m 17.83129,0 v -8.27881 h 1.9105 1.9105 v -4.13942 -4.13941 h -8.27881 -8.27883 v 4.13941 4.13942 h 2.22892 2.22891 v 8.27881 8.27881 h 4.1394 4.13941 z m 21.65229,4.13939 v -4.13939 h -3.63182 -3.63182 l 2.48741,-2.54734 2.48739,-2.54732 h -2.35816 c -2.09081,0 -2.35815,-0.1805 -2.35815,-1.59207 0,-1.50525 0.19105,-1.59208 3.50258,-1.59208 h 3.50257 v -4.13942 -4.13941 h -7.64199 -7.64197 v 12.41822 12.41823 h 7.64197 7.64199 z m 56.0412,0 v -4.13939 h -2.22891 -2.2289 v -8.27881 -8.27883 h -4.13942 -4.13941 v 12.41822 12.41823 h 6.36833 6.36831 z m 33.09018,-3.66176 -0.025,-7.8012 -4.09722,-4.45782 -4.09722,-4.45783 -0.0175,12.25901 -0.0175,12.25902 h 4.13941 4.1394 z m -214.62789,-0.94325 c 1.80011,-6.51945 2.68784,-11.85732 2.30837,-13.88004 l -0.41496,-2.21198 h -4.15346 c -3.65464,0 -4.11453,0.1338 -3.82925,1.11447 0.17832,0.61295 1.07776,4.41006 1.99877,8.43802 0.92098,4.02796 1.78841,7.68177 1.9276,8.1196 0.48572,1.52775 1.51178,0.77818 2.16293,-1.58007 z M 84.9839,463.46883 c 11.343545,-2.67427 21.62825,-10.94243 26.91922,-21.6411 2.30762,-4.66613 4.74032,-13.78156 3.90178,-14.62012 -0.18999,-0.18998 -6.58083,-0.34542 -14.20188,-0.34542 H 87.746574 l -1.480591,2.67826 c -0.814332,1.47305 -2.716423,3.54592 -4.226873,4.60641 -2.28226,1.60236 -3.358304,1.92682 -6.368329,1.92024 -10.908981,-0.0238 -16.624307,-12.33385 -9.495867,-20.45269 2.560785,-2.91658 5.219748,-4.03618 9.585515,-4.03618 2.637264,0 3.993426,0.37952 5.844257,1.63553 2.910675,1.97524 4.628162,3.92329 5.155195,5.84723 0.392376,1.43243 0.396999,1.43289 14.874189,1.43289 h 14.48169 l -0.52793,-3.36657 c -3.5601,-22.70257 -25.935365,-38.00091 -48.633733,-33.25168 -11.752592,2.45902 -23.109673,11.30819 -28.197904,21.97111 -3.10137,6.49929 -4.08827,10.99868 -4.05274,18.47698 0.0876,18.44426 12.443631,34.19725 30.658566,39.08739 4.568041,1.22637 14.540345,1.2557 19.621881,0.0578 z m 85.77381,0.0417 c 11.64018,-2.75989 21.54087,-10.67072 27.04528,-21.60967 15.25394,-30.31433 -11.56763,-64.99451 -44.87657,-58.02521 -11.75261,2.45902 -23.10969,11.30818 -28.19792,21.97111 -3.10137,6.49929 -4.08828,10.99868 -4.05274,18.47697 0.0876,18.44427 12.44365,34.19726 30.65858,39.08739 4.50599,1.20974 14.52411,1.26098 19.42337,0.0995 z m -12.5685,-27.72994 c -8.93298,-2.68977 -12.10139,-13.26487 -6.04199,-20.16617 2.55492,-2.90988 5.21899,-4.03617 9.54691,-4.03617 6.37325,0 11.32309,4.78664 11.80242,11.41331 0.44465,6.14729 -3.08318,11.07471 -9.10717,12.7202 -2.90426,0.79332 -3.76239,0.80284 -6.20017,0.0688 z m 5.88175,-12.36539 c 0,-1.45078 -1.88007,-2.61556 -3.04042,-1.88363 -1.4801,0.93361 -1.61623,1.85666 -0.44635,3.02654 0.77956,0.77957 1.32493,0.86894 2.25734,0.36994 0.67619,-0.36188 1.22943,-1.04266 1.22943,-1.51285 z m 252.06552,40.05365 c 11.34354,-2.67427 21.62824,-10.94243 26.91921,-21.6411 2.30762,-4.66613 4.74032,-13.78157 3.90178,-14.62012 -0.18998,-0.18998 -6.58083,-0.34542 -14.20187,-0.34542 h -13.85645 l -1.48059,2.67824 c -0.81431,1.47305 -2.71641,3.54592 -4.22687,4.60641 -2.28226,1.60236 -3.35831,1.92682 -6.36832,1.92024 -10.90899,-0.0238 -16.62432,-12.33385 -9.49588,-20.45269 2.56079,-2.91658 5.21975,-4.03618 9.58552,-4.03618 2.63726,0 3.99342,0.37952 5.84425,1.63553 2.91069,1.97524 4.62816,3.92329 5.1552,5.84723 0.39239,1.43243 0.397,1.43289 14.87419,1.43289 h 14.48169 l -0.52794,-3.36657 c -3.5601,-22.70257 -25.93536,-38.00091 -48.63371,-33.25168 -11.75261,2.45902 -23.10969,11.30819 -28.19792,21.97111 -3.10137,6.49929 -4.08827,10.99868 -4.05274,18.47698 0.0876,18.44426 12.44365,34.19725 30.65858,39.08739 4.56803,1.22637 14.54033,1.2557 19.62187,0.0578 z m 340.33577,-1.4493 c 4.97939,-2.45135 9.46766,-7.03631 11.8375,-12.09253 1.51222,-3.2264 1.70675,-4.40511 1.70675,-10.34157 0,-6.28229 -0.13012,-6.96426 -2.08506,-10.93548 -2.52697,-5.13298 -6.72239,-9.12587 -14.21608,-13.52974 -2.94313,-1.72963 -6.28252,-3.82187 -7.42085,-4.64944 -2.08938,-1.519 -2.74107,-3.64688 -1.27366,-4.15873 1.30779,-0.4562 2.38812,0.2284 2.38812,1.51332 0,1.13851 0.64215,1.20553 11.55017,1.20553 h 11.55016 l -0.32662,-4.06882 c -1.02937,-12.82375 -12.92939,-22.87071 -25.91014,-21.87542 -14.70479,1.12748 -24.69096,13.52467 -22.92931,28.46531 1.02302,8.67625 6.05471,14.80482 18.02488,21.95414 7.09662,4.23852 8.94101,6.08413 7.51008,7.51506 -0.97287,0.97287 -2.65339,0.0848 -2.65339,-1.40235 0,-1.25224 -0.3657,-1.29366 -11.42538,-1.29366 -6.28397,0 -11.55232,0.21494 -11.70745,0.47763 -0.6365,1.07787 0.96866,8.9778 2.43538,11.98583 1.89486,3.88607 6.55906,8.76872 10.13153,10.60599 4.75396,2.44492 7.49532,3.03545 13.19403,2.8422 4.66775,-0.15832 6.11416,-0.49169 9.61934,-2.21727 z M 251.31694,449.78816 v -12.73665 h -7.64199 -7.64197 v -26.1101 -26.1101 H 223.29634 210.5597 v 38.84674 38.84673 h 20.37861 20.37863 z m 49.67289,0 v -12.73665 h -7.64199 -7.64199 v -26.1101 -26.1101 h -12.73662 -12.73664 v 38.84674 38.84673 h 20.37861 20.37863 z m 57.31486,0.0158 v -12.7216 l -10.80851,-0.17425 -10.80851,-0.17426 7.27679,-8.27881 7.27681,-8.2788 -7.61284,-0.17881 -7.61285,-0.17883 v -4.75663 -4.75664 h 11.14456 11.14455 V 397.56871 384.83207 H 334.4235 310.5423 v 38.84674 38.84673 h 23.8812 23.88119 z m 132.46103,-13.38851 v -26.1101 h 6.7002 6.7002 l -0.17268,-12.57742 -0.17268,-12.57743 h -25.7917 -25.79168 l -0.17268,12.57743 -0.17268,12.57742 h 6.7002 6.7002 v 26.1101 26.1101 h 12.73662 12.73665 z m 46.48873,0.3407 v -25.76941 l -6.52754,-0.18149 -6.52752,-0.18148 6.36833,-2.29102 6.36831,-2.29102 0.17461,-10.60481 0.1746,-10.60484 h -12.75203 -12.75204 v 38.84675 38.84672 h 12.73664 12.73664 z m 36.93625,-13.07732 v -38.84679 h -12.73664 -12.73664 v 38.84675 38.84672 h 12.73664 12.73664 z m 19.89116,37.10318 c 3.84726,-1.73572 9.08386,-6.95967 10.86991,-10.84371 1.95324,-4.24759 1.96148,-12.59148 0.0158,-16.81888 -1.91505,-4.16253 -6.10145,-8.47689 -10.14519,-10.45532 l -3.42893,-1.67761 2.38357,-1.75168 c 5.67767,-4.17249 8.10219,-8.87064 8.0589,-15.61619 -0.0331,-5.14371 -1.50378,-8.6724 -5.26521,-12.63244 -3.53503,-3.7217 -7.55096,-5.49393 -13.4866,-5.95165 l -5.07322,-0.39122 v 39.01335 39.01336 l 6.52753,-0.26387 c 4.87511,-0.19707 7.29078,-0.60822 9.54264,-1.62414 z m 62.26015,-10.99308 v -12.73664 h -7.64198 -7.64198 v -26.1101 -26.11011 H 628.3214 615.58476 v 38.84675 38.84672 h 20.37863 20.37862 z m 56.67803,0.0158 v -12.7216 l -10.8085,-0.17425 -10.80851,-0.17425 7.27679,-8.27881 7.27679,-8.27881 -7.61283,-0.17881 -7.61284,-0.17882 v -4.75664 -4.75663 h 11.14454 11.14456 V 397.5694 384.83276 h -23.88118 -23.88121 v 38.84675 38.84672 h 23.88121 23.88118 z m -590.09619,-65.92711 4.22171,-4.13941 h -8.42504 -8.42505 l 4.10261,4.13941 c 2.25644,2.27667 4.14794,4.13939 4.20335,4.13939 0.0553,0 2.00048,-1.86272 4.32242,-4.13939 z m 423.24625,-16.23922 1.29954,-2.54733 h 12.47341 c 9.71318,0 12.40745,-0.17615 12.17528,-0.79603 -0.16392,-0.43783 -5.2702,-17.91886 -11.34717,-38.84675 L 549.72213,287.3976 h -9.68703 -9.68702 l -0.66248,2.0697 c -1.14072,3.56384 -21.72542,74.86817 -21.72542,75.25575 0,0.20242 5.5882,0.36802 12.41822,0.36802 6.83002,0 12.41929,0.21493 12.4206,0.47763 10e-4,0.26269 0.57026,1.40899 1.26431,2.54733 1.24301,2.03867 1.33345,2.06969 6.03459,2.06969 h 4.77264 z m -13.37348,-2.75982 c 0,-0.19724 5.92764,-20.82578 6.80123,-23.6687 0.36525,-1.1886 1.81765,3.17591 6.51661,19.58258 l 1.23116,4.29861 h -7.2745 c -4.00097,0 -7.2745,-0.0956 -7.2745,-0.21249 z m 8.6318,-35.2297 c 0.23614,-3.0984 0.79813,-7.63949 1.24886,-10.09129 0.45073,-2.4518 0.75911,-4.52266 0.6853,-4.60194 -0.0737,-0.0793 -1.37715,2.42826 -2.89628,5.57228 -2.56075,5.29976 -3.83268,6.65111 -4.79485,5.09427 -0.21147,-0.34217 -0.068,-1.8467 0.31873,-3.34337 0.38679,-1.49667 0.85006,-3.29438 1.02951,-3.9949 0.17944,-0.70051 -1.22604,1.73537 -3.1233,5.41307 -1.89727,3.67771 -3.78059,6.68674 -4.18517,6.68674 -0.40456,0 -0.71004,-0.28657 -0.67883,-0.63683 0.14133,-1.58556 9.20214,-18.77756 9.7902,-18.57585 0.75526,0.25907 0.8234,3.51774 0.14203,6.79445 -0.28471,1.36925 0.96936,-0.58036 3.25148,-5.05481 3.53656,-6.93401 5.8398,-9.80838 5.07386,-6.33206 -1.84339,8.36655 -4.35067,21.34844 -4.69334,24.30062 -0.69928,6.02436 -1.64522,5.02811 -1.16824,-1.23038 z m -312.94531,36.08077 c 7.22439,-2.27023 14.41623,-8.90073 17.27062,-15.92262 1.39245,-3.42545 1.42784,-4.15118 1.60709,-32.95605 l 0.18327,-29.45346 h -12.76071 -12.76072 v 27.38376 27.38378 h -2.54732 -2.54733 v -27.38378 -27.38376 h -12.7607 -12.76071 l 0.18327,29.45346 0.18329,29.45347 2.02829,4.28164 c 6.24662,13.18628 20.75323,19.52051 34.68166,15.14356 z m 204.4918,-0.7974 c 5.0962,-2.34096 10.08462,-7.24059 12.33747,-12.11786 1.64886,-3.56967 1.83036,-4.62702 1.83036,-10.66273 0,-6.28229 -0.13012,-6.96426 -2.08506,-10.93548 -2.52697,-5.13299 -6.72239,-9.12587 -14.21608,-13.52976 -2.94313,-1.72961 -6.28252,-3.82185 -7.42085,-4.64942 -2.08938,-1.519 -2.74107,-3.64689 -1.27366,-4.15873 1.30779,-0.4562 2.38812,0.2284 2.38812,1.51332 0,1.13851 0.64215,1.20553 11.55017,1.20553 h 11.55016 l -0.32662,-4.06882 c -1.02937,-12.82375 -12.92939,-22.87071 -25.91014,-21.87542 -14.70479,1.12746 -24.69096,13.52467 -22.92931,28.46531 1.02301,8.67624 6.05471,14.80482 18.02488,21.95412 7.09662,4.23854 8.94101,6.08415 7.5101,7.51507 -0.97289,0.97288 -2.65341,0.0848 -2.65341,-1.40234 0,-1.25224 -0.3657,-1.29366 -11.42538,-1.29366 -6.28397,0 -11.55232,0.21494 -11.70745,0.47763 -0.15516,0.26269 -0.0249,2.34035 0.28933,4.61702 1.31583,9.53247 7.72196,16.94142 17.43045,20.15904 4.21638,1.39742 12.66364,0.79608 17.03692,-1.21282 z m -298.68988,-11.71855 0.1732,-11.87728 5.089,11.55888 c 2.79894,6.35737 5.25999,11.55887 5.46897,11.55887 0.20898,0 2.58194,-4.94342 5.27323,-10.98536 2.69128,-6.04194 5.16926,-11.4152 5.50663,-11.94059 0.40528,-0.63118 0.61668,3.20351 0.62313,11.30375 l 0.0105,12.25902 h 11.78633 11.78632 l -0.1641,-38.68752 -0.16409,-38.68754 H 167.9636 156.25304 l -5.46128,12.25902 c -3.00371,6.74245 -5.61474,12.25069 -5.80232,12.24052 -0.18756,-0.0105 -2.77812,-5.52673 -5.75679,-12.25902 l -5.41574,-12.24052 -11.61951,-0.17355 -11.6195,-0.17355 v 38.8611 38.86111 h 11.76734 11.76734 z m 165.43112,-0.85934 v -12.73664 h -7.64197 -7.64199 v -26.1101 -26.1101 h -12.73664 -12.73662 v 38.84674 38.84673 h 20.37861 20.37861 z m 43.9414,-13.37348 v -26.1101 h 6.7002 6.7002 l -0.17268,-12.57741 -0.17268,-12.57744 h -25.79168 -25.7917 l -0.17268,12.57744 -0.17268,12.57741 h 6.7002 6.7002 v 26.1101 26.11011 h 12.73664 12.73663 z m 47.12557,0.3407 v -25.76941 l -6.52754,-0.18148 -6.52752,-0.18149 6.36833,-2.29102 6.36831,-2.29101 0.17461,-10.60482 0.1746,-10.60483 h -12.75204 -12.75203 v 38.84674 38.84673 h 12.73664 12.73664 z m 99.9826,-0.3407 v -26.1101 h 6.7002 6.7002 l -0.17268,-12.57741 -0.17268,-12.57744 h -25.7917 -25.79168 l -0.17268,12.57744 -0.17268,12.57741 h 6.7002 6.7002 v 26.1101 26.11011 h 12.73662 12.73665 z M 604.1218,326.24426 v -38.84674 h -12.73664 -12.73664 v 38.84674 38.84673 h 12.73664 12.73664 z m 23.967,31.04555 c -2.28233,-4.29066 -6.56419,-12.23534 -9.51527,-17.65486 l -5.36558,-9.85365 4.28605,-2.07321 c 7.65602,-3.70327 11.51494,-9.41792 11.95434,-17.70305 0.36063,-6.79976 -1.1832,-11.00857 -5.73371,-15.63143 -3.70576,-3.76467 -8.12864,-6.01961 -13.06531,-6.66114 l -3.34337,-0.43448 v 38.9065 38.9065 h 12.46625 12.46626 z m 65.18945,-4.93545 v -12.73664 h -9.23405 c -5.07875,0 -9.23406,-0.12154 -9.23406,-0.27022 0,-0.14869 4.87176,-11.75147 10.82614,-25.78412 5.95438,-14.03265 10.82613,-25.6606 10.82613,-25.83988 0,-0.1793 -12.32269,-0.32598 -27.38376,-0.32598 h -27.38377 v 12.71961 12.71961 l 9.1736,0.17623 9.17359,0.17623 -7.31097,17.19446 c -4.02105,9.45695 -8.98378,21.13485 -11.0283,25.95089 l -3.7173,8.75644 h 27.64639 27.64636 z m -57.4509,-18.98064 c 1.25893,-1.89605 0.69227,-1.76155 -1.18583,0.28146 -0.84913,0.92368 -1.13855,1.55278 -0.64312,1.39797 0.4954,-0.15482 1.31844,-0.91057 1.82895,-1.67943 z M 407.06819,640.40911 c -0.53767,-1.40111 0.71771,-7.35626 1.87214,-8.88095 0.82234,-1.08608 0.90913,-0.88344 0.92748,2.16561 0.0177,2.93431 -1.29535,7.78074 -2.10802,7.78074 -0.15552,0 -0.46676,-0.47943 -0.6916,-1.0654 z m -97.79955,-2.7556 c 0.3749,-0.70051 0.82492,-1.27365 1.00005,-1.27365 0.17513,0 0.0123,0.57314 -0.36321,1.27365 -0.37492,0.70052 -0.82495,1.27366 -1.00008,1.27366 -0.17512,0 -0.0123,-0.57314 0.36324,-1.27366 z m 244.72779,-3.1559 c -3.23722,-2.41363 -6.82317,-5.8902 -9.41494,-9.12773 -5.21602,-6.51567 -7.60596,-9.93882 -7.2132,-10.3316 0.65796,-0.65796 11.74052,6.58351 15.2638,9.97353 3.88513,3.73818 7.17704,9.57592 6.7971,12.05369 -0.18266,1.19116 -0.75199,0.92204 -5.43276,-2.56789 z m -25.32854,-4.64528 c -2.47399,-2.49152 -4.55914,-6.68191 -5.81518,-11.68639 l -0.42872,-1.70817 2.05202,1.2046 c 5.68885,3.33955 9.67534,9.40218 8.71041,13.24673 -0.57109,2.27541 -1.40299,2.08084 -4.51853,-1.05677 z M 238.5803,628.21805 c 0,-1.19806 7.62988,-7.33082 11.94059,-9.59765 2.35603,-1.23893 1.7174,0.31539 -1.5764,3.83672 -2.84103,3.03728 -5.67449,4.91653 -8.93132,5.92354 -0.79208,0.2449 -1.43287,0.17215 -1.43287,-0.16252 z m -73.8725,-49.48738 c 0,-1.54789 5.1142,-9.85452 7.95901,-12.92725 3.31575,-3.58141 12.25477,-10.93803 13.29077,-10.93803 0.57897,0 -3.47859,7.39159 -6.67637,12.16225 -2.7395,4.08695 -7.99102,9.03003 -11.48983,10.81499 -2.50436,1.27764 -3.08358,1.44445 -3.08358,0.88804 z m 3.18416,-22.16271 c 0,-2.08202 1.29672,-4.22912 3.12517,-5.17466 3.09458,-1.60025 3.89162,-1.33637 3.20412,1.06085 -0.72326,2.52185 -2.27792,4.10743 -4.578,4.66903 -1.33871,0.32686 -1.75129,0.19606 -1.75129,-0.55522 z m 470.30035,-11.84529 c -2.80208,-0.9724 -6.67083,-2.56667 -8.59725,-3.54279 -4.82826,-2.44653 -11.2461,-6.87154 -10.38326,-7.15916 1.21093,-0.40363 8.59462,1.74951 12.7171,3.70843 4.17414,1.98347 11.67646,7.30001 11.67646,8.27457 0,0.32057 -0.0716,0.56127 -0.15919,0.53491 -0.0876,-0.0264 -2.4518,-0.84356 -5.25386,-1.81596 z M 184.51726,533.80595 c -6.00499,-0.82493 -6.16964,-5.58862 -0.48822,-14.12429 1.10695,-1.66304 2.16999,-3.02429 2.36233,-3.02495 0.19233,-6.8e-4 0.71808,1.01755 1.16834,2.26271 0.97618,2.69958 4.62338,5.51985 9.03191,6.98414 l 3.13442,1.04109 -1.91498,2.78332 c -1.05324,1.53082 -2.22648,2.97584 -2.60723,3.21114 -1.19084,0.736 -7.76013,1.26886 -10.68657,0.86684 z m 458.84918,-12.99139 c -2.81973,-1.0051 -4.40675,-2.2486 -2.86977,-2.2486 1.80875,0 7.56653,1.95719 7.56653,2.57201 0,0.84339 -1.76416,0.72192 -4.69676,-0.32341 z m -456.79889,-8.2094 c 0.5896,-4.30164 2.75246,-9.45308 6.16138,-14.67502 3.3123,-5.07392 3.87686,-5.41742 10.65581,-6.48341 2.11717,-0.33292 2.77711,-0.21243 3.07398,0.56125 0.59061,1.53909 -0.66776,3.31461 -7.26954,10.25716 -3.3783,3.55266 -7.51507,7.95729 -9.19284,9.78803 -1.67775,1.83076 -3.22121,3.32864 -3.42991,3.32864 -0.2087,0 -0.2082,-1.24949 0.001,-2.77665 z M 210.5597,249.81357 c -12.55081,-0.43962 -17.33358,-0.86884 -21.97071,-1.97173 -3.04269,-0.72367 -8.59723,-3.15456 -8.59723,-3.76251 0,-0.23719 1.21189,-0.97629 2.69308,-1.64244 3.63874,-1.63647 16.2985,-1.66034 24.05386,-0.0454 8.12051,1.69103 31.8416,7.50663 31.8416,7.80649 0,0.33654 -12.22499,0.16882 -28.0206,-0.38446 z m 377.16367,0.18554 c -1.13833,-0.14133 -2.0697,-0.47991 -2.0697,-0.75253 0,-1.53746 9.45795,-2.4645 14.32872,-1.40448 2.43679,0.53032 1.59563,1.04422 -3.14192,1.91953 -3.75399,0.69358 -5.14893,0.72992 -9.1171,0.23748 z M 466.61363,235.89958 c -0.0445,-2.00125 -0.17093,-2.12388 -1.92439,-1.86652 -1.21452,0.17826 -1.7389,0.0352 -1.48597,-0.40534 1.21556,-2.11713 19.46317,-29.65666 19.65041,-29.65666 0.37961,0 -1.85755,4.81555 -9.17144,19.74177 -5.71023,11.65348 -7.02998,13.92881 -7.06861,12.18675 z m -183.41718,-5.02336 c -3.02347,-1.53654 -3.13379,-2.54494 -0.33579,-3.06983 2.52861,-0.47437 6.26252,0.39507 8.27049,1.92578 1.08983,0.8308 1.13149,1.04859 0.30619,1.6008 -1.50202,1.00505 -5.83728,0.76477 -8.24089,-0.45675 z m 71.16247,-5.73049 c -1.41056,-5.95803 -1.66872,-8.53332 -0.76481,-7.62941 0.55308,0.55307 3.95302,13.51865 3.66653,13.9822 -0.8,1.29443 -1.40465,-0.0294 -2.90172,-6.35279 z m -67.69781,-1.93385 c -9.35198,-4.98867 -14.51005,-9.66538 -17.2275,-15.61983 -0.92936,-2.03641 -1.53,-3.86232 -1.33475,-4.05757 0.49376,-0.49376 5.76123,2.64343 10.03448,5.97628 3.02724,2.36107 13.17275,13.75768 13.8347,15.54077 0.36582,0.98541 -0.71022,0.6124 -5.30693,-1.83965 z m 294.54721,-1.89646 c 0.0177,-0.66111 9.75063,-6.69191 16.72345,-10.36224 5.98877,-3.15235 17.20251,-7.22515 21.79241,-7.91493 1.98004,-0.29758 0.41999,0.705 -7.00515,4.50193 -13.13655,6.71748 -31.53698,14.76145 -31.51071,13.77524 z M 324.086,217.51049 c -4.12563,-3.97679 -7.83109,-10.41662 -7.79053,-13.53943 0.0186,-1.42835 0.43803,-1.15592 4.07894,2.64905 2.49319,2.60553 4.83462,5.86783 6.07135,8.45917 3.01074,6.30844 2.3591,6.97981 -2.35976,2.43121 z m 139.93278,3.4703 c 0,-1.35606 12.04599,-23.64415 12.52176,-23.16838 0.1042,0.1042 -0.48721,2.38312 -1.3144,5.06413 -1.01389,3.28618 -2.53497,6.28192 -4.66807,9.19364 -1.74026,2.3755 -3.92352,5.46027 -4.8517,6.85505 -0.92816,1.39476 -1.68759,2.31977 -1.68759,2.05556 z M 294.84642,201.5674 c -9.23139,-9.17481 -14.87321,-15.92879 -18.73298,-22.42573 -2.71126,-4.56373 -6.32838,-12.80913 -6.32838,-14.42586 0,-1.05393 10.37881,9.6236 14.53999,14.95848 5.67044,7.26984 20.25502,30.02826 19.24341,30.02826 -0.2952,0 -4.22011,-3.66082 -8.72204,-8.13515 z m 204.29692,-2.25475 c 1.70432,-5.31868 3.21639,-9.95689 3.36019,-10.30715 0.14378,-0.35026 0.28045,2.65879 0.30369,6.68675 l 0.0422,7.32355 -3.40244,2.98358 -3.40243,2.98358 z m 38.5069,3.54394 c 2.20417,-3.86933 4.33964,-6.76909 6.49371,-8.81777 2.28827,-2.1763 6.86611,-5.35172 7.71533,-5.35172 1.46949,0 -4.35633,7.99862 -9.0854,12.47388 -5.91797,5.60037 -7.68017,6.18355 -5.12364,1.69561 z m -187.50021,0.79605 c 0.0123,-1.05077 0.15569,-1.40354 0.31717,-0.78393 0.16147,0.61962 0.15079,1.47935 -0.0236,1.9105 -0.17443,0.43116 -0.30654,-0.0758 -0.29357,-1.12657 z m 25.18103,-2.71318 c -0.91703,-0.95955 -2.25107,-3.03423 -2.96453,-4.61039 -1.31923,-2.91435 -1.77302,-7.00515 -0.7771,-7.00515 1.3283,0 6.51227,12.25686 5.57878,13.19035 -0.0933,0.0933 -0.92013,-0.61525 -1.83715,-1.57481 z m -25.89174,-1.16088 c 0.0305,-0.74188 0.18147,-0.89277 0.38476,-0.38476 0.18395,0.45971 0.16129,1.00899 -0.0503,1.2206 -0.21161,0.2116 -0.36213,-0.16445 -0.33448,-0.83584 z m -54.21394,-18.19661 c -4.04103,-5.48605 -8.28828,-16.27603 -8.22296,-20.89006 l 0.0229,-1.61749 1.59285,1.91048 c 2.62126,3.144 6.56449,11.74543 7.97787,17.40221 0.72865,2.91631 1.17672,5.4505 0.99571,5.63151 -0.18101,0.18101 -1.24588,-0.91548 -2.36638,-2.43665 z m 113.18212,0.7368 c -0.99821,-4.08092 -1.86987,-12.33872 -1.88297,-17.83879 -0.0158,-6.69202 1.18176,-10.51344 4.14975,-13.24023 l 1.59604,-1.46633 1.03779,2.59367 c 2.05309,5.13115 0.95599,13.80318 -3.62804,28.67802 -0.79897,2.59266 -0.92024,2.71402 -1.27257,1.27366 z m 63.90877,0.712 c -0.0247,-1.16154 2.4699,-5.16982 3.21743,-5.16982 0.32168,0 0.58488,0.42534 0.58488,0.94521 0,1.20951 -3.77724,5.40628 -3.80231,4.22461 z m -50.17205,-4.20538 c 0.17709,-1.57112 0.85914,-3.64877 1.51568,-4.61703 l 1.19372,-1.76048 0.19392,2.3255 c 0.21756,2.60898 -1.32161,6.90857 -2.47316,6.90857 -0.51437,0 -0.65035,-0.90304 -0.43016,-2.85656 z"
       id="path1" />
  </g>
</svg>
