<?xml version="1.0" encoding="UTF-8" standalone="no"?>
<!-- Created with Inkscape (http://www.inkscape.org/) -->

<svg
   version="1.1"
   id="svg1"
   width="808.72736"
   height="808.36359"
   viewBox="0 0 808.72736 808.36359"
   xmlns="http://www.w3.org/2000/svg"
   xmlns:svg="http://www.w3.org/2000/svg">
  <defs
     id="defs1" />
  <g
     id="g1">
    <path
       id="path29"
       style="fill:#fcfcfc;fill-opacity:1;stroke-width:1.17808"
       d="m 401.89258,22.433576 c -0.62305,1.66862 -1.2461,3.33724 -1.86914,5.00586 -2.90745,7.599499 -5.37767,15.354209 -7.99219,23.056639 -22.57297,67.557735 -44.95606,135.184675 -67.39648,202.789065 h -74.81055 c -0.10389,0.28509 -0.94172,-0.18374 -1.50391,0 h -76.37695 v 54.16992 c -57.73307,0.0754 -115.466151,0.1518 -173.1992192,0.22657 54.9347082,39.04193 109.8698292,78.08329 164.8046892,117.125 -2.34697,4.8255 -4.31101,9.8856 -5.17774,15.20312 -1.14108,6.63458 -1.0649,13.41389 -0.61718,20.10938 0.34104,3.78363 1.18572,7.51315 2.39453,11.11132 h -3.08203 c 0.18833,11.14649 0.174,22.29742 0.55078,33.43946 0.12822,3.5018 0.81339,6.95451 1.81836,10.30468 2.50916,8.88653 7.07673,17.19124 13.33203,23.99219 1.03432,1.14458 2.12705,2.23513 3.19531,3.34766 -5.39061,2.54623 -10.27675,6.19973 -14.19336,10.69726 -3.07693,3.72571 -5.28468,8.08879 -7.10351,12.54102 -2.31529,6.22213 -2.55775,13.07518 -1.48047,19.58008 1.32676,7.66514 5.13986,14.83092 10.63867,20.31836 7.57617,7.66458 18.2585,12.3613 29.0918,12.12304 3.74411,-0.023 7.48854,-0.50454 11.10937,-1.46093 -15.73688,47.74079 -31.71071,95.40367 -47.44531,143.14453 -0.31917,1.1718 -0.30511,2.42234 -0.14258,3.61328 0.26704,1.25354 1.64096,2.03635 2.86523,1.73047 1.36575,0.10095 2.79586,-0.11504 3.89844,-0.98438 4.02608,-2.54968 7.79922,-5.47161 11.72071,-8.17578 65.26109,-46.36482 130.52208,-92.72893 195.7832,-139.09375 H 392 v -2.89258 c 6.53965,3.29291 14.00022,4.518 21.27344,3.9668 5.27213,-0.32804 10.51099,-1.62033 15.20117,-4.08398 0.4779,-0.28536 0.87008,0.46337 1.31055,0.63086 68.29202,48.5204 136.54168,97.10774 204.91992,145.50195 5.09681,3.62498 10.29208,7.10885 15.47851,10.60351 -1.73042,-6.19864 -3.45841,-12.40169 -5.54492,-18.49218 -14.81749,-45.11174 -29.82804,-90.16044 -44.75586,-135.23633 6.65445,-0.0338 13.31588,0.11716 19.96485,-0.19336 0.7286,-0.0288 1.45762,-0.26796 2.15429,-0.34961 5.89625,1.96382 12.37923,2.39005 18.41993,0.82813 9.94154,-2.67899 18.29131,-10.78336 20.98046,-20.75977 1.22547,-4.59804 1.28811,-9.48992 0.30078,-14.13867 0.96438,-0.52352 1.16769,-1.72112 1.03321,-2.72461 -0.20297,-5.18517 -0.12742,-10.38861 -0.65625,-15.55469 -0.67392,-4.51857 -2.66491,-8.76701 -5.23828,-12.50781 -1.75252,-2.47913 -3.88597,-4.70494 -6.38477,-6.43945 v -74.89649 c -4.92967,-0.0681 -9.85938,-0.134 -14.78906,-0.20117 8.64583,-19.91016 17.29166,-39.82031 25.9375,-59.73047 47.83122,-33.99892 95.66373,-67.99602 143.49414,-101.99609 -54.14974,-0.0737 -108.29948,-0.15135 -162.44922,-0.22657 V 253.291 c -54.5013,-0.0696 -109.0026,-0.14214 -163.50391,-0.21289 -22.80876,-68.65237 -45.5406,-137.33226 -68.5,-205.933595 -2.36595,-7.05901 -4.70288,-14.15982 -7.40429,-21.113282 -0.44998,-1.19919 -0.89962,-2.398467 -1.34961,-3.597657 z" />
    <path
       style="fill:#000000;stroke-width:1.17808"
       d="m 160.35616,760.57957 c 0.0135,-0.18057 11.29909,-34.22621 25.07922,-75.65697 13.78014,-41.43077 25.0093,-75.38907 24.95371,-75.46292 -0.0556,-0.0738 -1.0789,0.3493 -2.27402,0.94031 -5.81003,2.87316 -15.24896,3.97794 -22.22319,2.60113 -12.23297,-2.41499 -22.72382,-11.08405 -27.0627,-22.36315 -2.47385,-6.43089 -2.94981,-14.25438 -1.27842,-21.01433 0.98622,-3.98877 4.49973,-10.7888 7.23798,-14.00835 3.87683,-4.55823 10.25336,-8.98621 15.49497,-10.76002 1.07111,-0.36246 2.17008,-0.73712 2.44216,-0.83255 0.27207,-0.0954 -1.59099,-2.23468 -4.14015,-4.75389 -8.50746,-8.40747 -13.43392,-17.1529 -16.16862,-28.70246 -0.80257,-3.38955 -0.92364,-5.5438 -1.10001,-19.57276 l -0.19819,-15.764 h 2.36298 2.36298 l -1.27112,-3.49135 c -2.39607,-6.58125 -3.07548,-10.75299 -3.11868,-19.14957 -0.0543,-10.53633 1.34526,-17.0816 5.45971,-25.53479 1.63071,-3.35033 1.67763,-3.55771 0.92805,-4.10285 -0.43421,-0.31579 -35.84408,-25.48438 -78.688578,-55.93018 l -77.899119,-55.35602 82.344049,-0.10695 82.344048,-0.10684 v -27.08337 -27.08337 h 35.55519 35.55519 l 1.35523,2.85656 1.35522,2.85657 1.31298,-2.85657 1.31298,-2.85656 h 37.56556 37.56557 L 364.59025,145.56564 C 384.97826,84.120368 401.76729,33.844829 401.8992,33.842234 c 0.13192,-0.0023 16.91582,50.223184 37.29758,111.612866 l 37.05773,111.61762 81.19798,0.10695 81.19797,0.10695 v 27.0822 27.08219 l 76.97007,0.10695 76.97015,0.10695 -67.10447,47.69753 -67.10455,47.69753 -14.38847,33.13266 -14.38846,33.13266 8.42574,0.11475 8.42575,0.11475 v 36.53984 36.53984 l 1.74215,1.1782 c 3.76931,2.54915 7.14379,7.20622 8.94176,12.3404 1.0328,2.94926 1.18243,4.11359 1.36384,10.6128 l 0.20375,7.30012 h -1.18515 c -0.95841,0 -1.12548,0.14169 -0.87331,0.74058 1.66181,3.94663 2.18322,9.42394 1.33837,14.05945 -1.77815,9.75649 -9.69745,17.87625 -19.66531,20.16313 -4.151,0.95235 -10.1883,0.61789 -14.30763,-0.79262 -2.45834,-0.84176 -3.14398,-0.94735 -3.14398,-0.48415 0,0.49479 -2.1837,0.59237 -13.25563,0.59237 h -13.25562 l 0.29871,0.9522 c 0.1643,0.52371 11.22028,33.86522 24.56886,74.09227 13.34857,40.22705 24.20413,73.18776 24.12345,73.24603 -0.0806,0.0583 -48.31952,-34.13222 -107.19745,-75.97886 l -107.05078,-76.0848 -2.95775,1.45358 c -4.48841,2.2058 -8.60764,3.20316 -14.31966,3.46709 -7.92926,0.36637 -14.86205,-1.40009 -21.21064,-5.40444 l -2.61489,-1.64932 v 2.95312 2.95313 h -9.28667 -9.28666 l -100.75267,71.57318 c -55.41396,39.36524 -102.46017,72.79196 -104.54712,74.2816 -2.08695,1.48963 -3.78347,2.56069 -3.77003,2.3801 z m 40.79075,-157.63733 c 4.06336,-1.46121 6.69793,-3.06322 9.79417,-5.95559 4.32951,-4.04445 7.57303,-10.09162 7.99954,-14.91425 l 0.14849,-1.6789 -9.14379,-0.11405 -9.14379,-0.11405 -1.33676,2.09854 c -4.37642,6.8704 -14.9724,4.04155 -14.9724,-3.99724 0,-2.35987 0.5142,-3.60649 2.23674,-5.42276 1.658,-1.74823 3.19526,-2.39558 5.68864,-2.39558 3.01337,0 5.40491,1.25677 6.86679,3.60855 l 1.16005,1.86622 9.4211,0.0134 9.4211,0.0134 -0.24032,-1.37539 c -1.44447,-8.26691 -6.81777,-15.66428 -14.04271,-19.33246 -4.12858,-2.09613 -7.80183,-2.97662 -12.45199,-2.9848 -4.76058,-0.008 -7.43919,0.58571 -11.83838,2.62559 -2.99668,1.38955 -4.33483,2.35194 -7.15526,5.14601 -3.66216,3.62794 -5.51427,6.6801 -6.97913,11.5012 -1.02182,3.36294 -1.01561,10.06737 0.0125,13.51853 2.64598,8.88189 10.03151,16.06311 18.94238,18.41836 4.48092,1.18438 11.51795,0.94785 15.61301,-0.52476 z m 53.53301,0.90944 c 1.41523,-0.24878 4.23188,-1.22741 6.2592,-2.17473 4.8661,-2.27382 9.93901,-7.09724 12.25708,-11.65425 5.25397,-10.32861 3.22413,-22.12577 -5.22668,-30.37663 -4.87962,-4.76417 -11.45822,-7.37618 -18.60926,-7.38876 -4.76058,-0.008 -7.4392,0.58571 -11.83838,2.62559 -2.9967,1.38955 -4.33485,2.35194 -7.15527,5.146 -5.4467,5.39583 -7.75112,10.83367 -7.73324,18.24863 0.0119,4.89914 0.76094,7.87189 3.0927,12.27264 1.9833,3.74314 6.65792,8.40366 10.54516,10.51337 5.2676,2.85886 12.11052,3.89527 18.40869,2.78814 z m -8.48499,-18.21934 c -2.84877,-1.10531 -4.89408,-4.18347 -4.89408,-7.36557 0,-2.35987 0.51419,-3.60649 2.23674,-5.42276 1.67515,-1.76631 3.19958,-2.39558 5.8033,-2.39558 4.39792,0 8.129,3.59342 8.129,7.8291 0,4.18961 -3.75699,7.85419 -7.99905,7.80227 -1.20548,-0.0148 -2.67964,-0.21611 -3.27591,-0.44746 z m 172.64556,17.3099 c 4.06335,-1.46121 6.69792,-3.06322 9.79416,-5.95559 4.32947,-4.04442 7.55383,-10.05284 7.99612,-14.90037 l 0.15444,-1.69278 -9.14506,-0.11405 -9.14506,-0.11405 -1.33676,2.09854 c -4.37641,6.8704 -14.97239,4.04155 -14.97239,-3.99724 0,-2.35987 0.51418,-3.60649 2.23673,-5.42276 1.65801,-1.74823 3.19527,-2.39558 5.68865,-2.39558 3.01336,0 5.40491,1.25677 6.86678,3.60855 l 1.16006,1.86622 9.4211,0.0134 9.4211,0.0134 -0.24032,-1.37539 c -1.44447,-8.26691 -6.81776,-15.66428 -14.04271,-19.33246 -4.12858,-2.09613 -7.80183,-2.97662 -12.45199,-2.9848 -4.76058,-0.008 -7.4392,0.58571 -11.83837,2.62559 -2.9967,1.38955 -4.33486,2.35194 -7.15527,5.14601 -3.66216,3.62794 -5.51427,6.6801 -6.97913,11.5012 -1.02182,3.36294 -1.0156,10.06737 0.0125,13.51853 2.64599,8.88189 10.03151,16.06311 18.94237,18.41836 4.48092,1.18438 11.51795,0.94785 15.61303,-0.52476 z m 220.31958,-9.8e-4 c 5.60309,-2.50576 9.12231,-7.58696 9.40336,-13.577 0.18543,-3.9519 -0.44571,-6.49425 -2.33777,-9.41692 -1.78975,-2.76463 -4.22434,-4.78657 -9.26287,-7.69288 -4.63406,-2.67299 -5.77225,-3.62942 -5.41136,-4.5472 0.38313,-0.97433 1.8952,-0.81316 1.8952,0.202 0,0.81439 0.28911,0.84638 7.6483,0.84638 h 7.64829 l -0.22192,-2.69793 c -0.41108,-4.99773 -3.93757,-9.80627 -9.07282,-12.37125 -3.00196,-1.49942 -8.14362,-1.87207 -11.74264,-0.85103 -4.58339,1.3003 -8.97927,5.51448 -10.58898,10.15132 -1.06223,3.05973 -0.92575,7.80948 0.31774,11.05882 1.30669,3.41453 5.3409,7.33334 10.59138,10.28844 4.96394,2.79384 5.42065,3.15213 5.42065,4.25264 0,1.18222 -1.57069,1.22982 -1.95143,0.0591 -0.26148,-0.80397 -0.65613,-0.84638 -7.87566,-0.84638 h -7.6004 l 0.30891,2.22177 c 0.92467,6.65082 5.13864,11.59108 11.69793,13.71412 2.79805,0.90563 8.19394,0.52083 11.13409,-0.79404 z m -330.95283,-7.94755 v -8.0407 h -5.20382 -5.20384 v -16.71618 -16.7162 h -8.45622 -8.45623 v 24.7569 24.75688 h 13.66006 13.66005 z m 32.9576,0 v -8.0407 h -5.20384 -5.20383 v -16.71618 -16.7162 h -8.45623 -8.45622 v 24.7569 24.75688 h 13.66006 13.66006 z m 36.86046,0.0105 v -8.03047 l -7.22764,-0.11603 -7.22765,-0.11603 4.84256,-5.3472 c 2.6634,-2.94096 4.84255,-5.46425 4.84255,-5.60733 0,-0.14307 -2.24415,-0.26014 -4.98701,-0.26014 h -4.987 v -2.96236 -2.96237 h 7.37209 7.3721 v -8.0407 -8.0407 h -15.82832 -15.82832 v 24.7569 24.75688 h 15.82832 15.82832 z m 87.16415,-8.68573 v -16.7162 h 4.33653 4.33652 v -8.0407 -8.0407 h -17.12926 -17.12928 v 8.0407 8.0407 h 4.33652 4.33653 v 16.7162 16.71618 h 8.45623 8.45621 z m 30.35568,0.22693 v -16.48929 l -4.22811,-0.12113 -4.22812,-0.12113 4.22812,-1.4692 4.22811,-1.4692 v -6.67729 -6.67731 h -8.45623 -8.45622 v 24.7569 24.75688 h 8.45622 8.45623 z m 23.85089,-8.26763 v -24.7569 h -8.45623 -8.45622 v 24.7569 24.75688 h 8.45622 8.45623 z m 11.63677,24.10371 c 2.93971,-0.85194 6.3625,-3.62154 8.00911,-6.48068 2.46434,-4.27903 2.04782,-10.27756 -0.9986,-14.38163 -1.35081,-1.81975 -4.23115,-3.93264 -6.23081,-4.57063 l -1.24357,-0.39676 1.75516,-1.1335 c 3.58165,-2.31306 5.51703,-6.36147 5.18781,-10.85179 -0.24898,-3.39592 -1.08768,-5.07682 -3.83719,-7.69034 -2.53551,-2.41011 -5.11363,-3.35528 -9.1521,-3.35528 h -2.95831 v 24.7569 24.75688 h 3.60733 c 1.98904,0 4.61845,-0.29301 5.86117,-0.65317 z m 43.00345,-7.38752 v -8.0407 h -5.20383 -5.20383 v -16.71619 -16.7162 h -8.45622 -8.45623 v 24.7569 24.75688 h 13.66005 13.66006 z m 36.86046,0.0105 V 586.974 l -7.22764,-0.11603 -7.22764,-0.11603 4.84255,-5.3472 c 2.66341,-2.94095 4.84255,-5.46425 4.84255,-5.60733 0,-0.14307 -2.24415,-0.26014 -4.987,-0.26014 h -4.98701 v -2.96235 -2.96237 h 7.3721 7.37209 v -8.0407 -8.0407 h -15.82832 -15.82831 v 24.75689 24.75689 h 15.82831 15.82832 z M 392.52103,547.22266 c 0.13001,-0.2053 1.77577,-0.97882 3.65724,-1.71895 l 3.42086,-1.3457 2.98155,-6.1018 2.98155,-6.10179 18.58566,-0.008 18.58565,-0.008 -0.29689,-1.16378 c -0.1633,-0.64008 -7.38788,-24.9685 -16.05461,-54.06313 -8.66673,-29.09463 -16.08116,-53.99436 -16.4765,-55.33271 l -0.71881,-2.43337 h -14.67978 -14.67978 l -0.44752,1.37538 c -0.24613,0.75646 -7.68742,25.84662 -16.53618,55.75591 -8.84878,29.90929 -16.18871,54.71378 -16.31097,55.12111 -0.20925,0.6972 0.86848,0.74059 18.3911,0.74059 h 18.61339 l 1.76338,3.70296 c 5.45794,11.46126 6.37032,12.9247 7.22066,11.58199 z m -8.75907,-16.02555 c 2.03255,-7.514 10.59992,-35.52465 10.80046,-35.31163 0.30012,0.3188 10.78298,34.9662 10.78298,35.63936 0,0.2574 -4.10148,0.41287 -10.89189,0.41287 -10.16044,0 -10.87843,-0.0497 -10.69155,-0.7406 z m -154.26265,2.67682 c 8.07007,-2.15057 16.38376,-7.9521 21.09268,-14.71906 6.41536,-9.21922 8.10301,-21.2984 4.51702,-32.33009 -3.30921,-10.18022 -10.33151,-16.91681 -27.99479,-26.85577 -7.53553,-4.24017 -9.57453,-5.92756 -9.63412,-7.97273 -0.0465,-1.59489 0.92079,-2.58155 2.53076,-2.58155 1.46002,0 2.33319,1.11994 2.33319,2.9926 v 1.66254 h 17.41009 17.41011 l -0.28617,-3.97304 c -1.17296,-16.28439 -11.99096,-29.23381 -27.81243,-33.29223 -4.87344,-1.2501 -13.32991,-1.25148 -18.2134,-0.003 -13.86972,3.54594 -24.5257,14.37956 -27.38193,27.83837 -0.8423,3.96896 -0.59439,13.82131 0.43797,17.40589 1.70526,5.92105 5.46878,11.85174 10.5258,16.58698 4.44348,4.16072 6.1094,5.29614 16.16466,11.01718 9.39983,5.34814 11.7453,7.17756 11.7453,9.1611 0,1.52076 -0.86369,2.33912 -2.46864,2.33912 -1.44743,0 -2.7352,-1.4666 -2.7352,-3.11504 v -1.22271 h -17.12928 -17.12926 v 3.1463 c 0,16.12924 12.29311,30.45466 29.48836,34.36337 3.26403,0.74196 13.68638,0.46921 17.12928,-0.44827 z m 92.15116,-40.02375 v -38.08752 h 9.75718 9.75719 v -18.40898 -18.40897 h -38.59508 -38.59508 v 18.40897 18.40898 h 9.54036 9.54035 v 38.08752 38.08753 h 19.29754 19.29754 z m 169.55814,-18.40897 v -56.4965 h -19.29754 -19.29754 v 56.4965 56.4965 h 19.29754 19.29754 z m 40.60705,53.85153 c -9.51282,-16.77752 -27.12454,-49.18546 -26.85775,-49.4219 0.18942,-0.16789 1.41769,-0.64082 2.72949,-1.05096 9.71019,-3.03594 17.08722,-10.12083 20.26253,-19.46008 1.02961,-3.02826 1.15242,-4.03313 1.16373,-9.52187 0.0119,-5.56146 -0.0968,-6.45349 -1.15537,-9.52188 -4.32469,-12.53565 -16.29873,-21.34134 -29.05236,-21.36508 l -3.3608,-0.006 v 56.49651 56.49649 h 18.88511 18.88511 z m 92.52427,-15.75822 v -18.4032 l -14.00183,-0.1116 -14.00183,-0.11161 16.38692,-37.66342 c 9.01281,-20.71487 16.38692,-37.80665 16.38692,-37.98172 0,-0.17507 -18.44108,-0.31832 -40.98017,-0.31832 h -40.98016 v 18.40312 18.4031 l 13.8026,0.11161 13.80261,0.1116 -16.39604,37.66434 c -9.01782,20.71538 -16.39985,37.80716 -16.40451,37.98172 -0.005,0.17457 18.53016,0.3174 41.1885,0.3174 h 41.19699 z M 372.08278,393.39524 c 13.95616,-4.09583 25.06635,-15.13259 29.02285,-28.83105 l 0.97784,-3.38556 0.12553,-41.15568 0.12553,-41.15569 h -19.30988 -19.30989 v 39.56871 39.5687 h -3.68604 -3.68605 v -39.5687 -39.56871 h -19.31382 -19.31381 l 0.13377,40.94409 c 0.13193,40.3835 0.14649,40.988 1.0637,44.15151 2.74566,9.46986 8.03938,17.09968 15.84815,22.84186 4.02486,2.95968 7.22171,4.61902 11.76871,6.10859 4.8729,1.59632 7.2138,1.86991 14.80031,1.72969 6.01537,-0.11114 7.44593,-0.27717 10.7531,-1.24776 z m -139.3236,-19.83816 0.007,-18.30318 8.28521,18.08443 c 4.55685,9.94642 8.4142,18.00661 8.57185,17.91152 0.15767,-0.0951 3.98777,-8.21423 8.51137,-18.04253 l 8.22469,-17.86965 0.11305,18.2613 0.11306,18.26128 h 17.55832 17.55833 v -56.4965 -56.49649 H 284.0287 266.35519 l -8.23724,18.02265 c -4.53047,9.91246 -8.35714,18.09656 -8.50371,18.1869 -0.14656,0.0903 -3.95769,-7.97223 -8.46917,-17.91683 l -8.20269,-18.08112 -17.65839,-0.11056 -17.6584,-0.11056 v 56.50125 56.50124 h 17.56294 17.56292 z m 248.04176,-0.10578 v -18.40897 h -11.49179 -11.49178 v -38.08754 -38.08752 h -19.29754 -19.29754 v 56.49649 56.49651 h 30.78933 30.78932 z m 65.91519,-19.67856 V 315.6852 h 9.75718 9.75718 v -18.40897 -18.40897 h -38.59508 -38.59506 v 18.40897 18.40897 h 9.54035 9.54036 v 38.08753 38.08752 h 19.29754 19.29753 z m 69.81805,0.21969 v -37.86784 l -9.63869,-0.11393 -9.63871,-0.11394 9.53029,-3.38555 9.53029,-3.38556 0.11389,-15.12921 0.11389,-15.12921 h -19.30301 -19.30301 v 56.49649 56.4965 h 19.29753 19.29753 z"
       id="path1" />
  </g>
</svg>
